<svg xmlns="http://www.w3.org/2000/svg" viewBox="0 0 134.01 345.53"><defs><style>.cls-1{fill:#af384f;}</style></defs><g id="Livello_2" data-name="Livello 2"><g id="Livello_1-2" data-name="Livello 1"><path class="cls-1" d="M125.68.13a13.67,13.67,0,0,0-1.43,2.35,31,31,0,0,0-1.93,15.28,98.54,98.54,0,0,0,2.14,10.9c1.78,7,3.6,14,5.24,21A178.35,178.35,0,0,1,133,70.55c1.15,10.18,1.11,20.37,1,30.56-.18,10.63-2.27,21-5.16,31.19a181.14,181.14,0,0,1-22.63,49.35c-.91,1.4-1.85,2.79-2.74,4.2a2.22,2.22,0,0,0,.25,3c1.28,1.59,2.62,3.13,3.89,4.73a68.48,68.48,0,0,1,8.78,14.14,42.78,42.78,0,0,1,3.77,14.45,32.3,32.3,0,0,1-2.64,15.2,39.39,39.39,0,0,1-7.83,12.07c-2.43,2.54-5,4.94-7.69,7.23a68.86,68.86,0,0,1-11,7.55c-11.79,6.62-21.73,15.45-30.63,25.52A152.13,152.13,0,0,0,45.4,309.84c-.79,1.26-1.58,2.51-2.42,3.73-.14.18-.55.18-.83.26,0-.17-.18-.36-.14-.51a89.27,89.27,0,0,1,11.33-27.06,86.41,86.41,0,0,1,5.73-7.5c5.14-6.34,10.36-12.62,15.48-19a49.94,49.94,0,0,0,7.78-14.05,32.27,32.27,0,0,0,2-13.65,21.48,21.48,0,0,0-6.22-13.91c-2-2.06-3-2.21-5.27-.62A106.8,106.8,0,0,0,48,241.31a84.94,84.94,0,0,0-10.42,18.33A86.58,86.58,0,0,0,32,279.39c-.42,2.74-.47,5.54-.63,8.31-1,17.78-1,35.58-1.24,53.38,0,1.48,0,3,0,4.45-.37,0-.66,0-.7-.07a9.29,9.29,0,0,1-.86-2c-2.05-10.56-4.67-21-7.51-31.35a175.37,175.37,0,0,1-5.19-29A210.85,210.85,0,0,1,15.1,257a160.94,160.94,0,0,1,4.47-34.12,104.57,104.57,0,0,1,12.6-30.15c1-1.59,1.94-3.16,2.89-4.75a1.71,1.71,0,0,0-.69-2.38c-1.12-.65-2.29-1.23-3.41-1.88-16.13-9.4-26.1-23.29-30.08-41.49-1.41-6.44-1-12.92.18-19.34A123.38,123.38,0,0,1,9.88,95.43c1.56-3.56,3.16-7.11,4.64-10.71A111,111,0,0,0,19.76,68.9a50.23,50.23,0,0,0,.3-22.06c-.4-2-.89-4-1.3-6-.1-.45.12-.72.48-.7a.74.74,0,0,1,.47.24,23,23,0,0,1,1.51,2.32A96.92,96.92,0,0,1,31.6,73.1a112,112,0,0,1,1,22.18c-.07,2.41-.18,4.82-.23,7.23a54.5,54.5,0,0,0,4.83,23.23,74.32,74.32,0,0,0,22,28.23c.43.34.92.62,1.39.92a1.93,1.93,0,0,0,2.09-.09c2.52-2.45,5.18-4.79,7.51-7.42a182.66,182.66,0,0,0,24.2-35.21,183,183,0,0,0,16.73-42.89A127,127,0,0,0,115,36.79c-.08-4.26,0-8.53.26-12.79a53.67,53.67,0,0,1,2.53-13.64c1.13-3.54,2.55-7,5.27-9.67a2.09,2.09,0,0,1,2.53-.45Z"/></g></g></svg>