<svg width="335" height="338" viewBox="0 0 335 338" fill="none" xmlns="http://www.w3.org/2000/svg">
<mask id="mask0" style="mask-type:alpha" maskUnits="userSpaceOnUse" x="0" y="0" width="335" height="338">
<rect width="335" height="338" rx="14" fill="#AF384F"/>
</mask>
<g mask="url(#mask0)">
<rect x="-32" y="-10" width="439" height="357" fill="white" fill-opacity="0.67"/>
<path d="M-2.00001 635.5L-311.291 215.856C-17.4963 -132.605 174.346 45.8287 432.21 -154.322L718.143 269.662C268.167 203.274 195.394 616.65 -2.00001 635.5Z" fill="#DE2C2E"/>
<path d="M-228 547.5C227.5 322 164 309 664 253L446.587 -132.999C65.8532 89.1676 -36.7162 -43.2882 -305.21 224.877L-228 547.5Z" fill="#B71C21"/>
<path d="M-224.873 469.836C205.128 280.336 559.628 213.336 684.127 186.836L471.233 -96.9999C84 115.5 -24 -40 -283.883 255.956L-224.873 469.836Z" fill="white"/>
<path d="M164.591 165.807C162.786 165.564 162.334 166.4 162.439 168.063C162.586 170.391 162.412 172.737 162.528 175.069C162.593 176.394 162.06 176.614 160.862 176.588C157.631 176.546 157.639 176.588 156.753 173.451C154.701 166.157 153.445 158.794 154.462 151.184C155.621 142.507 159.385 135.034 165.237 128.548C173.314 119.594 183.595 115.443 195.665 115.523C201.752 115.561 207.495 117.216 212.801 120.08C221.246 124.636 229.702 124.887 238.124 120.296C256.725 110.172 280.436 116.468 291.744 136.108C297.715 146.479 298.442 157.392 295.879 168.765C294.179 176.295 291.45 183.514 288.822 190.763C288.688 191.042 288.524 191.306 288.331 191.549C288.007 190.068 288.61 188.686 288.815 187.262C289.321 183.731 290.086 180.271 289.51 176.603C288.911 172.764 287.504 169.194 286.527 165.488C285.325 160.931 282.546 157.256 279.721 153.747C275.461 148.366 269.63 144.392 263.009 142.355C256.312 140.201 249.055 140.447 242.526 143.05C238.093 144.774 234.448 147.652 230.966 150.732C229.517 152.011 227.932 153.272 227.627 155.376L227.654 155.33L227.202 155.748L227.244 155.699L226.815 156.158C225.474 158.543 224.902 156.454 224.11 155.706C224.056 155.376 224.04 155.004 223.522 155.106H223.476C223.785 154.643 223.6 154.256 223.248 153.929C220.415 151.271 217.945 148.271 214.598 146.148C207.379 141.565 199.526 139.431 191.135 141.47C177.844 144.705 169.353 153.386 164.591 165.807Z" fill="#DE2C2E"/>
<path d="M227.607 155.365C227.913 153.261 229.497 152 230.947 150.72C234.425 147.641 238.073 144.762 242.506 143.038C249.036 140.436 256.293 140.19 262.99 142.343C269.611 144.38 275.442 148.355 279.701 153.736C282.527 157.244 285.305 160.95 286.507 165.477C287.485 169.183 288.892 172.753 289.491 176.592C290.067 180.26 289.302 183.719 288.795 187.251C288.591 188.675 287.988 190.057 288.312 191.538C282.774 203.781 277.224 216.016 267.952 226.139C263.16 231.372 257.78 235.83 250.843 238.056C246.716 239.454 242.228 239.433 238.116 237.995C229.482 234.889 220.933 235.435 212.361 237.892C205.953 239.734 200.04 238.652 194.405 235.394C186.795 230.974 181.264 224.552 176.441 217.432C173.11 212.534 170.412 207.301 167.552 202.14C166.42 200.086 166.481 200.052 168.758 200.048C170.497 200.048 172.236 199.972 173.971 200.075C175.204 200.147 175.517 199.695 175.467 198.556C175.39 196.091 175.409 193.619 175.467 191.155C175.467 190.532 174.942 189.336 176.24 189.469C177.465 189.594 179.166 188.489 179.846 190.524C181.512 195.514 184.26 199.919 187.668 203.906C193.292 210.483 200.31 215.366 207.889 219.521C212.965 222.369 218.207 224.92 223.588 227.161C224.72 227.617 225.691 227.727 226.877 227.226C236.226 223.276 245.363 218.928 253.579 212.97C261.923 206.921 268.779 199.585 271.67 189.541C274.298 180.397 275.288 171.143 270.77 162.166C262.576 145.902 241.455 142.317 228.168 154.909C227.992 155.073 227.804 155.225 227.607 155.365Z" fill="#B71C21"/>
<path d="M79.5384 173.11C78.6727 173.812 78.5065 174.72 78.1161 175.483C73.9499 183.655 69.8068 191.839 65.6869 200.037C65.1497 201.119 64.6086 201.753 63.2559 201.593C61.1727 201.343 58.3939 202.471 57.1572 201.145C56.0596 199.968 56.6007 197.302 56.4461 195.294C55.905 188.175 55.3704 181.055 54.8422 173.934C54.8228 173.653 54.9349 173.284 54.2238 173.129C53.6595 176.06 53.0966 178.982 52.5349 181.893C51.3677 188.037 50.2082 194.18 49.0565 200.321C48.9367 200.94 48.9135 201.586 47.9705 201.578C45.0216 201.548 42.0766 201.578 39.0002 201.578C41.7056 188.933 44.411 176.466 47.0352 163.985C47.2207 163.096 47.5376 162.88 48.3918 162.887C52.2566 162.929 56.1214 162.952 59.9862 162.887C61.1457 162.864 61.4703 163.149 61.5322 164.315C62.023 172.324 62.6105 180.325 63.1747 188.329C63.2056 188.766 63.2868 189.199 63.4105 190.167L69.1691 178.445C71.5421 173.618 73.9305 168.803 76.2649 163.962C76.3863 163.611 76.6269 163.311 76.9463 163.113C77.2658 162.915 77.6447 162.832 78.0195 162.876C81.8186 162.929 85.6178 162.963 89.4169 162.876C90.7889 162.842 90.986 163.255 90.7271 164.452C88.9802 172.475 87.2835 180.511 85.5714 188.542C84.7405 192.434 83.8477 196.315 83.1172 200.223C82.9008 201.388 82.4061 201.628 81.3317 201.601C79.0128 201.536 76.6939 201.518 74.375 201.601C73.1885 201.643 73.0416 201.335 73.3122 200.238C75.3567 191.884 77.3316 183.529 79.3413 175.175C79.5794 174.513 79.6471 173.804 79.5384 173.11Z" fill="#040404"/>
<path d="M187.267 201.567C191.236 197.143 194.919 193.034 198.61 188.929C200.65 186.651 202.668 184.372 204.767 182.136C205.435 181.426 205.516 180.883 205.072 180.013C202.467 174.947 199.935 169.855 197.377 164.767C197.103 164.22 196.847 163.658 196.488 162.898C200.171 162.898 203.626 162.921 207.078 162.898C207.986 162.898 208.059 163.502 208.287 164.079C209.625 167.487 210.97 170.892 212.322 174.294C213.118 174.347 213.261 173.668 213.571 173.265C215.936 170.193 218.29 167.11 220.589 163.988C220.819 163.621 221.149 163.323 221.542 163.128C221.934 162.934 222.374 162.85 222.811 162.887C226.394 162.955 229.977 162.914 233.919 162.914C229.625 167.751 225.54 172.335 221.474 176.933C220.176 178.407 218.096 179.812 217.876 181.445C217.656 183.078 219.31 184.957 220.152 186.723C222.471 191.614 224.79 196.505 227.206 201.582C223.449 201.582 219.928 201.54 216.407 201.605C215.298 201.628 215.186 200.845 214.916 200.196C213.404 196.539 211.928 192.871 210.309 188.887C207.758 192.066 205.172 194.876 203.085 198.001C201.184 200.845 198.95 202.06 195.475 201.635C192.94 201.32 190.335 201.567 187.267 201.567Z" fill="#030303"/>
<path d="M86.043 201.567C88.8527 196.847 91.5078 192.404 94.1591 187.957C98.8355 180.062 103.527 172.175 108.165 164.258C108.741 163.278 109.325 162.815 110.546 162.868C113.05 162.974 115.57 162.952 118.067 162.868C119.107 162.838 119.528 163.153 119.694 164.163C121.652 176.185 123.644 188.201 125.669 200.211C125.87 201.388 125.576 201.609 124.475 201.582C121.905 201.521 119.331 201.517 116.745 201.582C115.76 201.609 115.385 201.305 115.3 200.352C115.168 198.833 114.848 197.352 114.735 195.844C114.666 194.865 114.268 194.572 113.302 194.584C109.506 194.624 105.711 194.624 101.916 194.584C101.073 194.584 100.652 194.925 100.285 195.609C99.4153 197.223 98.4375 198.78 97.5795 200.401C97.1505 201.202 96.6712 201.609 95.6664 201.586C92.6132 201.529 89.5252 201.567 86.043 201.567ZM104.88 187.137C106.322 187.137 107.354 187.179 108.378 187.137C110.094 187.053 112.355 187.874 113.371 186.791C114.306 185.796 113.259 183.67 113.135 182.041C112.931 179.337 112.552 176.649 112.181 173.375C109.607 178.221 107.315 182.542 104.88 187.133V187.137Z" fill="#030303"/>
<path d="M248.412 162.898C246.406 172.324 244.478 181.585 242.422 190.82C242.035 192.571 242.422 192.909 244.18 192.867C249.065 192.749 253.962 192.867 258.867 192.81C259.964 192.81 260.49 192.882 260.123 194.211C259.566 196.216 259.21 198.278 258.828 200.329C258.642 201.309 258.163 201.597 257.139 201.593C248.518 201.548 239.893 201.548 231.264 201.593C230.162 201.593 229.892 201.43 230.147 200.245C232.724 188.271 235.26 176.288 237.757 164.296C237.962 163.312 238.24 162.815 239.461 162.868C242.395 162.982 245.367 162.898 248.412 162.898Z" fill="#030303"/>
<path d="M224.176 110.62C223.859 106.216 222.019 102.798 220.535 99.3006C223.758 98.674 224.013 98.8145 224.925 101.814C225.837 104.814 226.75 107.727 227.739 110.928C230.382 107.4 233.923 105.691 238.174 105.118C243.971 104.336 249.428 105.445 254.719 107.662C256.354 108.346 258.028 108.995 259.744 110.298C256.694 110.712 253.946 110.977 251.241 111.475C245.594 112.508 240.373 114.851 235.009 116.791C232.388 117.74 229.664 117.809 226.931 118.139C221.211 118.83 216.419 116.396 211.364 114.722C205.315 112.713 199.429 110.119 192.812 109.914C197.481 106.743 202.985 104.969 208.658 104.807C214.448 104.609 219.982 105.243 224.176 110.62Z" fill="#040404"/>
<path d="M164.592 165.807C169.342 153.386 177.833 144.705 191.116 141.466C199.491 139.427 207.348 141.561 214.579 146.145C217.926 148.267 220.396 151.279 223.229 153.925C223.581 154.252 223.766 154.639 223.457 155.102C219.275 151.263 214.448 148.715 208.771 147.694C195.221 145.256 182.084 154.29 178.559 167.007C177.853 169.634 177.464 172.334 177.4 175.05C177.377 175.714 177.786 176.63 176.414 176.592C175.042 176.554 175.498 175.616 175.487 174.97C175.448 172.506 175.367 170.034 175.51 167.577C175.599 166.058 175.042 165.811 173.666 165.845C170.648 165.925 167.622 165.834 164.592 165.807Z" fill="#B71C21"/>
<path d="M159.676 178.646C161.083 178.487 163.355 179.387 164.341 178.301C165.187 177.37 164.619 175.187 164.646 173.554C164.669 172.103 164.696 170.645 164.646 169.194C164.603 168.241 164.862 167.835 165.921 167.873C167.977 167.945 170.037 167.957 172.105 167.873C173.264 167.824 173.485 168.298 173.462 169.312C173.404 171.902 173.5 174.496 173.419 177.082C173.38 178.266 173.647 178.737 174.965 178.684C177.597 178.574 180.24 178.718 182.872 178.619C184.109 178.574 184.399 178.999 184.345 180.138C184.248 182.09 184.252 184.057 184.345 186.009C184.391 187.053 184.001 187.266 183.035 187.243C180.53 187.182 178.01 187.319 175.514 187.186C173.921 187.107 173.249 187.395 173.388 189.18C173.581 191.69 173.388 194.23 173.458 196.756C173.477 197.663 173.199 197.963 172.271 197.937C170.149 197.88 168.02 197.864 165.906 197.937C164.858 197.975 164.619 197.602 164.642 196.638C164.708 194.048 164.592 191.455 164.696 188.869C164.746 187.585 164.453 187.118 163.05 187.182C160.418 187.304 157.778 187.182 155.142 187.239C154.168 187.239 153.778 187.027 153.82 185.986C153.902 183.97 153.898 181.946 153.82 179.911C153.782 178.893 154.157 178.585 155.146 178.631C156.545 178.695 157.964 178.646 159.676 178.646Z" fill="#050505"/>
<path d="M147.107 162.898C144.475 175.339 141.878 187.505 139.343 199.687C139.057 201.062 138.62 201.722 137.024 201.609C134.651 201.445 132.259 201.525 129.878 201.586C128.834 201.612 128.572 201.4 128.807 200.31C131.299 188.766 133.759 177.214 136.189 165.655C136.282 165.222 136.378 164.79 136.429 164.353C136.552 163.236 137.07 162.834 138.299 162.864C141.182 162.971 144.077 162.898 147.107 162.898Z" fill="#030303"/>
<path d="M223.515 155.106C224.033 155.004 224.048 155.376 224.102 155.706L223.515 155.106Z" fill="#B71C21"/>
<path d="M227.202 155.748L227.631 155.319L227.202 155.748Z" fill="#B71C21"/>
<path d="M226.815 156.158L227.244 155.699L226.815 156.158Z" fill="#B71C21"/>
<path d="M104.88 187.133C107.315 182.542 109.607 178.221 112.181 173.36C112.567 176.633 112.931 179.322 113.135 182.026C113.259 183.655 114.295 185.781 113.371 186.776C112.355 187.858 110.094 187.038 108.378 187.122C107.354 187.175 106.322 187.133 104.88 187.133Z" fill="#FEFEFE"/>
</g>
</svg>
