<svg width="335" height="338" viewBox="0 0 335 338" fill="none" xmlns="http://www.w3.org/2000/svg">
<mask id="mask0" mask-type="alpha" maskUnits="userSpaceOnUse" x="0" y="0" width="335" height="338">
<rect width="335" height="338" rx="14" fill="#AF384F"/>
</mask>
<g mask="url(#mask0)">
<rect x="-32" y="-10" width="439" height="357" fill="white"/>
<path d="M394.114 -18.3884L452.076 335.798C217.79 471.22 152.334 283.146 -30.5118 330.019L-93.9997 -57.9357C135.453 143.367 283.116 -74.0214 394.114 -18.3884Z" fill="#DE2C2E"/>
<path d="M399.396 13.8794C221.46 -34.8213 174.177 109.64 -82.2096 14.103L-33.7033 310.509C220.451 291.261 247.458 417.055 450.726 327.544L399.396 13.8794Z" fill="#B71C21"/>
<path d="M401.85 28.8866C223.914 -19.8141 127.479 133.885 -74.5978 60.6268L-38.3716 281.993C215.782 262.746 243.527 393.041 446.795 303.531L401.85 28.8866Z" fill="white"/>
<path d="M164.592 165.807C162.787 165.564 162.335 166.399 162.439 168.063C162.586 170.39 162.412 172.737 162.528 175.069C162.594 176.394 162.06 176.614 160.862 176.588C157.631 176.546 157.639 176.588 156.754 173.451C154.702 166.156 153.446 158.793 154.462 151.184C155.622 142.507 159.386 135.033 165.237 128.548C173.315 119.593 183.595 115.443 195.665 115.523C201.752 115.561 207.495 117.216 212.802 120.079C221.246 124.636 229.703 124.887 238.124 120.296C256.725 110.172 280.436 116.468 291.745 136.108C297.716 146.479 298.442 157.392 295.88 168.765C294.179 176.295 291.451 183.514 288.823 190.763C288.689 191.042 288.524 191.306 288.332 191.549C288.007 190.068 288.61 188.686 288.815 187.262C289.321 183.731 290.087 180.271 289.511 176.603C288.912 172.764 287.505 169.194 286.527 165.488C285.325 160.931 282.546 157.255 279.721 153.747C275.461 148.366 269.631 144.392 263.01 142.355C256.313 140.201 249.056 140.447 242.526 143.05C238.093 144.774 234.449 147.652 230.966 150.732C229.517 152.011 227.932 153.272 227.627 155.376L227.654 155.33L227.202 155.748L227.245 155.699L226.816 156.158C225.474 158.543 224.902 156.454 224.11 155.706C224.056 155.376 224.041 155.004 223.523 155.106H223.476C223.786 154.643 223.6 154.256 223.248 153.929C220.415 151.271 217.946 148.271 214.599 146.148C207.379 141.565 199.526 139.431 191.135 141.47C177.844 144.705 169.353 153.386 164.592 165.807Z" fill="#DE2C2E"/>
<path d="M227.607 155.364C227.913 153.261 229.497 152 230.947 150.72C234.425 147.641 238.073 144.762 242.506 143.038C249.036 140.436 256.293 140.19 262.99 142.343C269.611 144.38 275.442 148.355 279.701 153.735C282.527 157.244 285.305 160.95 286.507 165.477C287.485 169.183 288.892 172.753 289.491 176.592C290.067 180.26 289.302 183.719 288.795 187.251C288.591 188.675 287.988 190.057 288.312 191.538C282.774 203.781 277.224 216.016 267.952 226.139C263.16 231.372 257.78 235.83 250.843 238.055C246.716 239.454 242.228 239.433 238.116 237.995C229.482 234.888 220.933 235.435 212.361 237.892C205.953 239.734 200.04 238.652 194.405 235.394C186.795 230.973 181.264 224.552 176.441 217.432C173.11 212.533 170.412 207.301 167.552 202.14C166.42 200.086 166.481 200.052 168.758 200.048C170.497 200.048 172.236 199.972 173.971 200.074C175.204 200.147 175.517 199.695 175.467 198.555C175.39 196.091 175.409 193.619 175.467 191.154C175.467 190.532 174.942 189.336 176.24 189.468C177.465 189.594 179.166 188.489 179.846 190.524C181.512 195.514 184.26 199.919 187.668 203.906C193.292 210.483 200.31 215.366 207.889 219.521C212.965 222.369 218.207 224.92 223.588 227.161C224.72 227.617 225.691 227.727 226.877 227.225C236.226 223.276 245.363 218.928 253.579 212.97C261.923 206.921 268.779 199.585 271.67 189.541C274.298 180.397 275.288 171.142 270.77 162.166C262.576 145.901 241.455 142.317 228.168 154.909C227.992 155.073 227.804 155.225 227.607 155.364Z" fill="#B71C21"/>
<path d="M79.5386 173.109C78.6729 173.812 78.5067 174.72 78.1164 175.483C73.9501 183.655 69.807 191.839 65.6871 200.036C65.1499 201.119 64.6088 201.753 63.2561 201.593C61.173 201.343 58.3942 202.471 57.1574 201.145C56.0598 199.968 56.6009 197.302 56.4463 195.294C55.9052 188.175 55.3706 181.055 54.8424 173.933C54.8231 173.652 54.9352 173.284 54.224 173.128C53.6598 176.06 53.0968 178.981 52.5351 181.893C51.3679 188.037 50.2085 194.18 49.0568 200.321C48.937 200.94 48.9138 201.586 47.9707 201.578C45.0219 201.548 42.0769 201.578 39.0005 201.578C41.7059 188.933 44.4112 176.466 47.0355 163.984C47.221 163.096 47.5379 162.879 48.392 162.887C52.2568 162.929 56.1217 162.952 59.9865 162.887C61.1459 162.864 61.4706 163.149 61.5324 164.315C62.0233 172.323 62.6107 180.324 63.175 188.329C63.2059 188.766 63.2871 189.199 63.4107 190.167L69.1693 178.445C71.5423 173.618 73.9308 168.803 76.2651 163.962C76.3865 163.61 76.6271 163.311 76.9466 163.113C77.266 162.915 77.6449 162.832 78.0198 162.876C81.8189 162.929 85.618 162.963 89.4171 162.876C90.7892 162.841 90.9863 163.255 90.7273 164.451C88.9804 172.475 87.2838 180.51 85.5716 188.542C84.7407 192.434 83.8479 196.315 83.1175 200.222C82.901 201.388 82.4063 201.628 81.3319 201.601C79.013 201.536 76.6941 201.517 74.3752 201.601C73.1887 201.643 73.0419 201.335 73.3124 200.238C75.3569 191.884 77.3318 183.529 79.3415 175.175C79.5796 174.513 79.6474 173.803 79.5386 173.109Z" fill="#040404"/>
<path d="M187.267 201.567C191.236 197.143 194.919 193.034 198.61 188.929C200.65 186.651 202.668 184.372 204.767 182.136C205.435 181.426 205.516 180.883 205.072 180.013C202.467 174.947 199.935 169.855 197.377 164.767C197.103 164.22 196.847 163.658 196.488 162.898C200.171 162.898 203.626 162.921 207.078 162.898C207.986 162.898 208.059 163.502 208.287 164.079C209.625 167.487 210.97 170.892 212.322 174.294C213.118 174.347 213.261 173.668 213.571 173.265C215.936 170.193 218.29 167.11 220.589 163.988C220.819 163.62 221.149 163.323 221.542 163.128C221.934 162.934 222.374 162.85 222.811 162.887C226.394 162.955 229.977 162.914 233.919 162.914C229.625 167.751 225.54 172.335 221.474 176.933C220.176 178.407 218.096 179.812 217.876 181.445C217.656 183.077 219.31 184.957 220.152 186.723C222.471 191.614 224.79 196.505 227.206 201.582C223.449 201.582 219.928 201.54 216.407 201.605C215.298 201.627 215.186 200.845 214.916 200.196C213.404 196.539 211.928 192.871 210.309 188.887C207.758 192.066 205.172 194.876 203.085 198.001C201.184 200.845 198.95 202.06 195.475 201.635C192.94 201.32 190.335 201.567 187.267 201.567Z" fill="#030303"/>
<path d="M86.043 201.567C88.8527 196.847 91.5078 192.404 94.1591 187.957C98.8355 180.062 103.527 172.175 108.165 164.258C108.741 163.278 109.325 162.815 110.546 162.868C113.05 162.974 115.57 162.952 118.067 162.868C119.107 162.838 119.528 163.153 119.694 164.163C121.652 176.185 123.644 188.201 125.669 200.211C125.87 201.388 125.576 201.609 124.475 201.582C121.905 201.521 119.331 201.517 116.745 201.582C115.76 201.609 115.385 201.305 115.3 200.352C115.168 198.833 114.848 197.352 114.735 195.844C114.666 194.864 114.268 194.572 113.302 194.583C109.506 194.624 105.711 194.624 101.916 194.583C101.073 194.583 100.652 194.925 100.285 195.609C99.4153 197.223 98.4375 198.779 97.5795 200.401C97.1505 201.202 96.6712 201.609 95.6664 201.586C92.6132 201.529 89.5252 201.567 86.043 201.567ZM104.88 187.137C106.322 187.137 107.354 187.179 108.378 187.137C110.094 187.053 112.355 187.874 113.371 186.791C114.306 185.796 113.259 183.67 113.135 182.041C112.931 179.337 112.552 176.649 112.181 173.375C109.607 178.221 107.315 182.542 104.88 187.133V187.137Z" fill="#030303"/>
<path d="M248.412 162.898C246.406 172.323 244.478 181.585 242.422 190.82C242.035 192.571 242.422 192.909 244.18 192.867C249.065 192.749 253.962 192.867 258.867 192.81C259.964 192.81 260.49 192.882 260.123 194.211C259.566 196.216 259.21 198.278 258.828 200.329C258.642 201.309 258.163 201.597 257.139 201.593C248.518 201.548 239.893 201.548 231.264 201.593C230.162 201.593 229.892 201.43 230.147 200.245C232.724 188.271 235.26 176.288 237.757 164.296C237.962 163.312 238.24 162.815 239.461 162.868C242.395 162.982 245.367 162.898 248.412 162.898Z" fill="#030303"/>
<path d="M224.176 110.62C223.859 106.215 222.019 102.798 220.535 99.3004C223.758 98.6739 224.013 98.8144 224.925 101.814C225.837 104.814 226.75 107.727 227.739 110.928C230.382 107.4 233.923 105.691 238.174 105.118C243.971 104.336 249.428 105.445 254.719 107.662C256.354 108.346 258.028 108.995 259.744 110.298C256.694 110.711 253.946 110.977 251.241 111.475C245.594 112.508 240.373 114.851 235.009 116.791C232.388 117.74 229.664 117.809 226.931 118.139C221.211 118.83 216.419 116.396 211.364 114.721C205.315 112.713 199.429 110.119 192.812 109.914C197.481 106.743 202.985 104.969 208.658 104.807C214.448 104.609 219.982 105.243 224.176 110.62Z" fill="#040404"/>
<path d="M164.592 165.807C169.342 153.386 177.833 144.705 191.116 141.466C199.491 139.427 207.348 141.561 214.579 146.144C217.926 148.267 220.396 151.278 223.229 153.925C223.581 154.252 223.766 154.639 223.457 155.102C219.275 151.263 214.448 148.715 208.771 147.694C195.221 145.256 182.084 154.29 178.559 167.007C177.853 169.634 177.464 172.333 177.4 175.05C177.377 175.714 177.786 176.629 176.414 176.592C175.042 176.554 175.498 175.616 175.487 174.97C175.448 172.506 175.367 170.034 175.51 167.577C175.599 166.058 175.042 165.811 173.666 165.845C170.648 165.925 167.622 165.834 164.592 165.807Z" fill="#B71C21"/>
<path d="M159.676 178.646C161.083 178.486 163.356 179.386 164.341 178.3C165.187 177.37 164.619 175.187 164.646 173.554C164.67 172.103 164.697 170.645 164.646 169.194C164.604 168.241 164.863 167.835 165.922 167.873C167.978 167.945 170.038 167.956 172.105 167.873C173.265 167.824 173.485 168.298 173.462 169.312C173.404 171.902 173.501 174.495 173.42 177.081C173.381 178.266 173.648 178.737 174.965 178.684C177.597 178.574 180.241 178.718 182.873 178.619C184.11 178.574 184.399 178.999 184.345 180.138C184.249 182.09 184.253 184.057 184.345 186.009C184.392 187.053 184.001 187.266 183.035 187.243C180.531 187.182 178.011 187.319 175.514 187.186C173.922 187.106 173.249 187.395 173.389 189.18C173.582 191.69 173.389 194.23 173.458 196.755C173.477 197.663 173.199 197.963 172.272 197.936C170.15 197.879 168.02 197.864 165.906 197.936C164.859 197.974 164.619 197.602 164.642 196.638C164.708 194.048 164.592 191.454 164.697 188.868C164.747 187.585 164.453 187.118 163.05 187.182C160.418 187.304 157.779 187.182 155.143 187.239C154.169 187.239 153.778 187.027 153.821 185.986C153.902 183.97 153.898 181.946 153.821 179.91C153.782 178.893 154.157 178.585 155.147 178.631C156.546 178.695 157.964 178.646 159.676 178.646Z" fill="#050505"/>
<path d="M147.107 162.898C144.475 175.338 141.878 187.505 139.343 199.687C139.057 201.062 138.62 201.722 137.024 201.608C134.651 201.445 132.259 201.525 129.878 201.586C128.834 201.612 128.572 201.4 128.807 200.31C131.299 188.766 133.759 177.214 136.189 165.655C136.282 165.222 136.378 164.789 136.429 164.353C136.552 163.236 137.07 162.834 138.299 162.864C141.182 162.97 144.077 162.898 147.107 162.898Z" fill="#030303"/>
<path d="M223.515 155.106C224.033 155.004 224.048 155.376 224.102 155.706L223.515 155.106Z" fill="#B71C21"/>
<path d="M227.202 155.748L227.631 155.319L227.202 155.748Z" fill="#B71C21"/>
<path d="M226.815 156.158L227.244 155.699L226.815 156.158Z" fill="#B71C21"/>
<path d="M104.88 187.133C107.315 182.542 109.607 178.221 112.181 173.36C112.568 176.633 112.931 179.322 113.136 182.026C113.259 183.655 114.295 185.781 113.371 186.776C112.355 187.858 110.094 187.038 108.378 187.122C107.354 187.175 106.322 187.133 104.88 187.133Z" fill="#FEFEFE"/>
</g>
</svg>
