<svg xmlns="http://www.w3.org/2000/svg" viewBox="0 0 4129 1036.78"><defs><style>.cls-1{fill:#ffd2d2;}.cls-2{fill:#af384f;}.cls-3{fill:#d16a7d;}.cls-4{fill:#fff;}</style></defs><g id="Livello_2" data-name="Livello 2"><g id="Livello_1-2" data-name="Livello 1"><path class="cls-1" d="M2699.4,372.73c-35.46,2.77-70.84,6.45-106.18,10.48-297.92,34-607-197-1090.22-64.21C1023,449,559-10,5,11.78v789C272.67,939.59,426,587,1503,834.22c384.59,97.84,570.23-171.46,1075.13,102.54A1058.89,1058.89,0,0,0,2760,1014.88C3407,1145,3398,643,4129,875V0C3254.56,148.34,3638.29,299.54,2699.4,372.73Z"/><path class="cls-2" d="M2435.11,425.61C2142,382.51,2003.66,218.69,1502,324.22,864,447,585,42,3.78,81V731.33C222,966,615,484,1502,796.22c220.77,88.84,605-120.5,1025.85,96.14,68.06,35,138.47,69.38,214.23,80.4C3527,1087,3420.77,569,4128.67,781.33v-672C3559,109,3193,497,2435.11,425.61Z"/><path class="cls-3" d="M2627,460.22c-601-29-616-198-1125-125C925,454,418.76,152.86,2,141V673c404,221,676-201,1500,80.22,397,101,562.66-76.45,1125,102C3296,1062,3321,493,4127.78,709V190.22C3278,222,3584,439,2627,460.22Z"/><path class="cls-4" d="M2627,498.22c-601-29-616-204-1125-131C786,521,381,170,0,177V646c270,168,797-160,1502,87.22,397,101,681-78,1125,60C3289,934,3118,539,4127.78,663V245.33C3481,272,3815,439,2627,498.22Z"/></g></g></svg>