<svg id="Livello_1" data-name="Livello 1" xmlns="http://www.w3.org/2000/svg" viewBox="0 0 7102.5 2146.91"><g id="Livello_2" data-name="Livello 2"><g id="Livello_1-2" data-name="Livello 1-2"><path d="M4123.31-764.3v-455H2991v455H-17.75l3.54,1444.13C641.63,862.68,1088.28,403.7,2676.69,333.7c763.93-10,936.49,598,1445.61,346.13,895.62-394.13,1987.24-10.19,3005.76,0V-764.3Z" style="fill:#ffd2d2"/><path d="M4124.49-1207.3l-1.18,952.08V-1338.3H2991V-98l-1.51-1109.25H-14L-15.22,560.83C1111.49,435.7,1344.61,115.7,2692.84,216.7,3747.4,323.7,3750.15,847.52,4122.3,560.83c739.2-515.13,1964.14-18.3,3005.76,0V-1207.3Z" style="fill:#d16a7d"/><path d="M4114.1-1405.8a.28.28,0,0,0-.38,0l-.05,0H-32.5L-9.29,423.7c979.73-119.25,1850.78-607,2991.63-279.53C3480.54,272.41,3758,591.09,4113.1,422.31,5162.61-23.3,6107.48,439.24,7135,463.2v-1869Z" style="fill:#af384f"/></g></g></svg>