<svg width="414" height="121" viewBox="0 0 414 121" fill="none" xmlns="http://www.w3.org/2000/svg">
<path d="M235 34.5C164.2 62.1 48.8333 23 0 0V18.5C19.5 28.5 139 69 249 47.5C337 30.3 395.667 62 414 80V55C383.833 36.6667 305.8 6.9 235 34.5Z" fill="#AF384F"/>
<path d="M210 50.2481C139.2 60.9669 40.5 32.5489 0 17V70.594L414 83V77.5414C355 31.391 298.5 36.8496 210 50.2481Z" fill="#D16A7D"/>
<path d="M205.252 60.1195C154.114 75.4151 47.1098 53.7463 0 41V121H414V82.2579C355.571 52.0692 269.175 41 205.252 60.1195Z" fill="#FFD2D2"/>
</svg>
