<svg width="414" height="90" viewBox="0 0 414 90" fill="none" xmlns="http://www.w3.org/2000/svg">
<path d="M72.0876 74L0.000610352 50.5V0.5H414V67.5L383.964 52.5L323.391 33.5L260.815 39L169.705 67.5L72.0876 74Z" fill="#FFD2D2"/>
<path d="M49.5 71.3303L0 52.156V73.8532C44.1667 87.8135 152.4 105.339 232 63.7615C311.6 22.1835 386.5 63.9297 414 90V69.8165L363 45.0917L296.5 35L238.5 45.0917L166.5 73.8532L111 80.9174L49.5 71.3303Z" fill="#AF384F"/>
<path d="M210.755 46C102.224 81.2 25.0308 60.6667 0.000610352 46V55C36.3778 74.6667 129.457 103.3 210.755 60.5C292.053 17.7 380.126 51 414 73V60.5C391.473 41 319.286 10.8 210.755 46Z" fill="#D16A7D"/>
</svg>
