<?xml version="1.0" encoding="UTF-8"?>
<svg id="Livello_2" data-name="Livello 2" xmlns="http://www.w3.org/2000/svg" viewBox="0 0 249.5 249.16">
  <defs>
    <style>
      .cls-1 {
        fill: #c12e2d;
      }

      .cls-2 {
        font-size: 7.8px;
      }

      .cls-2, .cls-3, .cls-4, .cls-5, .cls-6, .cls-7, .cls-8, .cls-9, .cls-10 {
        fill: #fff;
        font-family: MontserratRoman-Bold, Montserrat;
        font-variation-settings: 'wght' 700;
        font-weight: 700;
      }

      .cls-11 {
        fill: #e56767;
      }

      .cls-3 {
        font-size: 7.8px;
      }

      .cls-4 {
        font-size: 7.8px;
      }

      .cls-5 {
        font-size: 12.35px;
      }

      .cls-12 {
        fill: #f18888;
      }

      .cls-6 {
        font-size: 12.35px;
      }

      .cls-7 {
        font-size: 12.35px;
      }

      .cls-13 {
        fill: none;
        stroke: #ec6566;
        stroke-linecap: round;
        stroke-miterlimit: 10;
        stroke-width: 3.46px;
      }

      .cls-14 {
        fill: #cc3b3b;
      }

      .cls-8 {
        font-size: 7.8px;
      }

      .cls-9 {
        font-size: 12.35px;
      }

      .cls-15 {
        fill: #ec6566;
      }

      .cls-16 {
        fill: #d65150;
      }

      .cls-10 {
        font-size: 7.8px;
      }

      .cls-17 {
        fill: #edabaf;
      }

      .cls-18 {
        fill: #af1917;
      }
    </style>
  </defs>
  <g id="Livello_1-2" data-name="Livello 1">
    <g>
      <path class="cls-15" d="m132.6,97.21c-.07.12-.14.24-.19.37-.26.78-.34,1.61-.26,2.43.07.59.16,1.17.29,1.74.24,1.11.48,2.22.7,3.32.2,1.1.35,2.21.44,3.32.13,1.61.18,3.23.14,4.85-.05,1.66-.28,3.32-.69,4.93-.66,2.73-1.68,5.37-3.03,7.83-.12.22-.26.44-.37.66-.05.08-.07.17-.06.26,0,.09.04.17.09.23.17.26.37.49.51.75.48.7.87,1.46,1.18,2.25.29.74.46,1.51.51,2.3.05.82-.08,1.64-.37,2.41-.24.69-.59,1.34-1.05,1.92-.32.4-.66.78-1.02,1.14-.45.45-.94.85-1.47,1.2-1.58,1.11-2.95,2.48-4.07,4.05-.75,1.01-1.42,2.08-2.01,3.19-.11.19-.21.4-.32.59-.02.03-.07.03-.11.04s-.03-.06-.02-.08c.29-1.5.81-2.94,1.52-4.29.24-.41.49-.81.77-1.19.69-1.01,1.39-2,2.07-3.01.45-.69.8-1.44,1.04-2.23.22-.7.31-1.44.27-2.18-.03-.81-.32-1.58-.83-2.21-.27-.33-.4-.35-.71-.1-1.3,1.07-2.42,2.35-3.32,3.77-.57.91-1.04,1.89-1.4,2.9-.35,1.02-.6,2.07-.74,3.13-.06.44-.06.87-.08,1.31-.13,2.81-.13,5.64-.17,8.46v.71s-.06,0-.09,0c-.05-.1-.09-.21-.12-.32-.27-1.68-.63-3.33-1.01-4.97-.34-1.51-.57-3.05-.69-4.6-.11-1.38-.14-2.76-.1-4.14.02-1.81.21-3.62.56-5.4.34-1.67.9-3.28,1.69-4.8.14-.26.26-.51.39-.77.02-.03.03-.06.03-.1,0-.03,0-.07,0-.1,0-.03-.02-.07-.04-.1-.02-.03-.04-.05-.07-.07-.15-.1-.31-.19-.46-.3-1.07-.72-1.97-1.66-2.64-2.76-.71-1.17-1.19-2.46-1.42-3.8-.16-1.01-.16-2.04.03-3.05.24-1.49.64-2.96,1.18-4.37.21-.57.42-1.13.62-1.7.29-.82.53-1.66.71-2.51.23-1.15.24-2.33.04-3.49-.06-.32-.12-.63-.17-.95,0-.07,0-.11.06-.11.01,0,.02,0,.04,0,.01,0,.02.02.03.03.07.12.14.24.2.37.69,1.52,1.16,3.14,1.39,4.8.14,1.17.19,2.34.14,3.52,0,.38-.03.77-.03,1.15-.02,1.26.2,2.51.65,3.69.63,1.7,1.63,3.23,2.95,4.47.06.05.12.1.18.15.08.07.2.07.28,0,.34-.39.69-.77,1.01-1.17,1.28-1.74,2.37-3.61,3.24-5.59,1-2.18,1.75-4.46,2.24-6.8.36-1.69.53-3.42.51-5.15,0-.68,0-1.35.03-2.03.03-.74.14-1.47.34-2.18.12-.56.36-1.08.71-1.53.04-.05.1-.09.16-.1.06-.01.13,0,.18.03h.03Z"/>
      <g>
        <path class="cls-1" d="m10.98,162.5l15.95-21.56c.62-.84,1.64-1.29,2.68-1.17l29.47,3.24c1.98.22,3.6-1.56,3.19-3.51-1.59-7.65-3.81-25.2,4.13-42.4.45-.98.31-2.14-.36-3l-19.8-25.58c-.66-.85-1.72-1.27-2.78-1.1l-30.63,4.85c-.97.15-1.8.78-2.21,1.67-3.51,7.68-18.86,45.23-4.81,87.73.75,2.27,3.74,2.76,5.16.84Z"/>
        <path class="cls-14" d="m85.49,237.91l-7.49-25.75c-.29-1-.03-2.09.69-2.84l20.43-21.48c1.38-1.45.94-3.81-.86-4.67-7.05-3.37-22.36-12.23-31.23-28.98-.51-.96-1.52-1.54-2.6-1.53l-32.35.25c-1.07,0-2.05.6-2.56,1.54l-14.7,27.31c-.47.87-.47,1.9,0,2.77,3.98,7.44,24.56,42.41,66.88,56.97,2.26.78,4.46-1.3,3.79-3.59Z"/>
        <path class="cls-17" d="m112.06,5.5l17.69,20.16c.69.79.91,1.88.58,2.87l-9.41,28.11c-.63,1.89.76,3.85,2.76,3.87,7.81.07,25.43,1.61,40.56,13.03.86.65,2.03.75,3,.29l29.2-13.93c.97-.46,1.61-1.41,1.67-2.48l1.75-30.97c.06-.98-.38-1.92-1.17-2.51-6.76-5.06-40.21-28.02-84.72-23.29-2.37.25-3.49,3.07-1.91,4.86Z"/>
        <path class="cls-18" d="m23.77,60.04l26.79-1.16c1.04-.05,2.03.47,2.6,1.35l16.02,24.94c1.08,1.68,3.48,1.82,4.74.27,4.95-6.05,17.19-18.81,35.56-23.46,1.05-.27,1.86-1.11,2.1-2.16l7.43-31.48c.25-1.04-.1-2.14-.89-2.86l-23.04-20.76c-.73-.66-1.74-.91-2.69-.66-8.18,2.1-47.03,13.79-71.22,51.45-1.29,2.01.21,4.64,2.59,4.54Z"/>
        <path class="cls-12" d="m210.15,39.96l-4.82,26.38c-.19,1.03-.91,1.88-1.89,2.23l-27.88,10.08c-1.88.68-2.54,2.99-1.32,4.56,4.8,6.17,14.52,20.94,14.97,39.88.03,1.08.67,2.06,1.64,2.53l29.05,14.24c.96.47,2.11.38,2.98-.24l25.36-17.85c.8-.57,1.27-1.49,1.25-2.47-.23-8.44-3-48.91-34.34-80.87-1.67-1.7-4.57-.83-5,1.52Z"/>
        <path class="cls-16" d="m189.28,226.2l-24.69-10.47c-.96-.41-1.63-1.3-1.77-2.33l-3.74-29.41c-.25-1.98-2.36-3.14-4.16-2.28-7.07,3.34-23.61,9.6-42.19,5.89-1.06-.21-2.15.2-2.83,1.05l-20.25,25.23c-.67.84-.83,1.97-.42,2.96l11.88,28.65c.38.91,1.18,1.57,2.14,1.76,8.28,1.62,48.39,7.77,86.42-15.83,2.03-1.26,1.81-4.28-.39-5.21Z"/>
        <path class="cls-11" d="m244.72,139.86l-23.82,12.32c-.93.48-2.04.43-2.92-.13l-25.02-15.9c-1.69-1.07-3.92-.19-4.42,1.75-1.94,7.57-7.69,24.3-22.4,36.24-.84.68-1.22,1.79-1,2.85l6.49,31.69c.22,1.05.99,1.9,2.01,2.22l29.64,9.15c.94.29,1.96.09,2.72-.53,6.53-5.34,36.87-32.28,42.99-76.62.33-2.36-2.14-4.12-4.26-3.03Z"/>
      </g>
      <text class="cls-8" transform="translate(132.14 30.86) rotate(3.1)"><tspan x="0" y="0"> </tspan></text>
      <text class="cls-8" transform="translate(134.3 30.97) rotate(4.8)"><tspan x="0" y="0"> </tspan></text>
      <text class="cls-8" transform="translate(136.46 31.15) rotate(6.39)"><tspan x="0" y="0"> </tspan></text>
      <text class="cls-8" transform="translate(138.62 31.4) rotate(7.93)"><tspan x="0" y="0"> </tspan></text>
      <text class="cls-8" transform="translate(140.73 31.61) rotate(11.16)"><tspan x="0" y="0">M</tspan></text>
      <text class="cls-8" transform="translate(147.93 33.06) rotate(15.54)"><tspan x="0" y="0">A</tspan></text>
      <text class="cls-8" transform="translate(153.6 34.63) rotate(19.54)"><tspan x="0" y="0">N</tspan></text>
      <text class="cls-8" transform="translate(159.43 36.69) rotate(23.6)"><tspan x="0" y="0">U</tspan></text>
      <text class="cls-8" transform="translate(164.89 39.07) rotate(27.52)"><tspan x="0" y="0">A</tspan></text>
      <text class="cls-8" transform="translate(170.08 41.8) rotate(31.04)"><tspan x="0" y="0">L</tspan></text>
      <text class="cls-8" transform="translate(174.06 44.22) rotate(33.44)"><tspan x="0" y="0">I</tspan></text>
      <text class="cls-8" transform="translate(176.16 45.57) rotate(35.86)"><tspan x="0" y="0">T</tspan></text>
      <text class="cls-8" transform="translate(179.8 48.18) rotate(39.2)"><tspan x="0" y="0">À</tspan></text>
      <text class="cls-2" transform="translate(214.62 154.43) rotate(105.78)"><tspan x="0" y="0"> </tspan></text>
      <text class="cls-2" transform="translate(214.03 156.5) rotate(107.47)"><tspan x="0" y="0"> </tspan></text>
      <text class="cls-2" transform="translate(213.38 158.57) rotate(109.07)"><tspan x="0" y="0"> </tspan></text>
      <text class="cls-2" transform="translate(212.72 160.61) rotate(111.79)"><tspan x="0" y="0">C</tspan></text>
      <text class="cls-2" transform="translate(210.7 165.73) rotate(115.77)"><tspan x="0" y="0">O</tspan></text>
      <text class="cls-2" transform="translate(207.86 171.55) rotate(119.53)"><tspan x="0" y="0">S</tspan></text>
      <text class="cls-2" transform="translate(205.5 175.82) rotate(123.57)"><tspan x="0" y="0">M</tspan></text>
      <text class="cls-2" transform="translate(201.4 181.93) rotate(127.74)"><tspan x="0" y="0">E</tspan></text>
      <text class="cls-2" transform="translate(198.24 186.01) rotate(131.06)"><tspan x="0" y="0">T</tspan></text>
      <text class="cls-2" transform="translate(195.11 189.57) rotate(133.49)"><tspan x="0" y="0">I</tspan></text>
      <text class="cls-2" transform="translate(193.41 191.41) rotate(136.22)"><tspan x="0" y="0">C</tspan></text>
      <text class="cls-2" transform="translate(189.32 195.28) rotate(138.92)"><tspan x="0" y="0">I</tspan></text>
      <text class="cls-10" transform="translate(204.8 73.06) rotate(56.68)"><tspan x="0" y="0"> </tspan></text>
      <text class="cls-10" transform="translate(205.99 74.82) rotate(59.33)"><tspan x="0" y="0">T</tspan></text>
      <text class="cls-10" transform="translate(208.42 78.91) rotate(62.81)"><tspan x="0" y="0">E</tspan></text>
      <text class="cls-10" transform="translate(210.78 83.49) rotate(66.43)"><tspan x="0" y="0">C</tspan></text>
      <text class="cls-10" transform="translate(213.04 88.63) rotate(70.34)"><tspan x="0" y="0">N</tspan></text>
      <text class="cls-10" transform="translate(215.14 94.47) rotate(74.54)"><tspan x="0" y="0">O</tspan></text>
      <text class="cls-10" transform="translate(216.83 100.71) rotate(78.23)"><tspan x="0" y="0">L</tspan></text>
      <text class="cls-10" transform="translate(217.8 105.15) rotate(81.9)"><tspan x="0" y="0">O</tspan></text>
      <text class="cls-10" transform="translate(218.7 111.56) rotate(86.05)"><tspan x="0" y="0">G</tspan></text>
      <text class="cls-10" transform="translate(219.07 117.5) rotate(88.87)"><tspan x="0" y="0">I</tspan></text>
      <text class="cls-10" transform="translate(219.15 119.98) rotate(91.41)"><tspan x="0" y="0">E</tspan></text>
      <text class="cls-2" transform="translate(158.43 214.19) rotate(157.3)"><tspan x="0" y="0"> </tspan></text>
      <text class="cls-2" transform="translate(156.44 215.02) rotate(159)"><tspan x="0" y="0"> </tspan></text>
      <text class="cls-2" transform="translate(154.46 215.84) rotate(162.03)"><tspan x="0" y="0">N</tspan></text>
      <text class="cls-2" transform="translate(148.58 217.75) rotate(166.17)"><tspan x="0" y="0">U</tspan></text>
      <text class="cls-2" transform="translate(142.77 219.16) rotate(169.69)"><tspan x="0" y="0">T</tspan></text>
      <text class="cls-2" transform="translate(138.12 220.02) rotate(173.12)"><tspan x="0" y="0">R</tspan></text>
      <text class="cls-2" transform="translate(132.49 220.67) rotate(175.82)"><tspan x="0" y="0">I</tspan></text>
      <text class="cls-2" transform="translate(130.02 220.88) rotate(178.37)"><tspan x="0" y="0">Z</tspan></text>
      <text class="cls-2" transform="translate(124.83 221) rotate(-179.06)"><tspan x="0" y="0">I</tspan></text>
      <text class="cls-2" transform="translate(122.36 221.01) rotate(-176.05)"><tspan x="0" y="0">O</tspan></text>
      <text class="cls-2" transform="translate(115.88 220.56) rotate(-171.78)"><tspan x="0" y="0">N</tspan></text>
      <text class="cls-2" transform="translate(109.75 219.66) rotate(-168.03)"><tspan x="0" y="0">E</tspan></text>
      <text class="cls-4" transform="translate(72.29 205.18) rotate(-147.78)"><tspan x="0" y="0"> </tspan></text>
      <text class="cls-4" transform="translate(70.46 204.03) rotate(-145.95)"><tspan x="0" y="0">I</tspan></text>
      <text class="cls-4" transform="translate(68.38 202.68) rotate(-142.82)"><tspan x="0" y="0">N</tspan></text>
      <text class="cls-4" transform="translate(63.44 198.91) rotate(-139.11)"><tspan x="0" y="0">T</tspan></text>
      <text class="cls-4" transform="translate(59.85 195.82) rotate(-135.83)"><tspan x="0" y="0">E</tspan></text>
      <text class="cls-4" transform="translate(56.16 192.25) rotate(-132.18)"><tspan x="0" y="0">G</tspan></text>
      <text class="cls-4" transform="translate(52.19 187.86) rotate(-128.34)"><tspan x="0" y="0">R</tspan></text>
      <text class="cls-4" transform="translate(48.69 183.45) rotate(-124.5)"><tspan x="0" y="0">A</tspan></text>
      <text class="cls-4" transform="translate(45.51 178.81) rotate(-121.11)"><tspan x="0" y="0">T</tspan></text>
      <text class="cls-4" transform="translate(43.08 174.85) rotate(-117.41)"><tspan x="0" y="0">O</tspan></text>
      <text class="cls-4" transform="translate(40.1 169.08) rotate(-113.37)"><tspan x="0" y="0">R</tspan></text>
      <text class="cls-4" transform="translate(37.89 163.87) rotate(-110.69)"><tspan x="0" y="0">I</tspan></text>
      <text class="cls-8" transform="translate(28.94 135.71) rotate(-98.38)"><tspan x="0" y="0"> </tspan></text>
      <text class="cls-8" transform="translate(28.62 133.58) rotate(-96.69)"><tspan x="0" y="0"> </tspan></text>
      <text class="cls-8" transform="translate(28.37 131.42) rotate(-95.09)"><tspan x="0" y="0"> </tspan></text>
      <text class="cls-8" transform="translate(28.14 129.29) rotate(-92.37)"><tspan x="0" y="0">P</tspan></text>
      <text class="cls-8" transform="translate(27.92 123.67) rotate(-88.83)"><tspan x="0" y="0">S</tspan></text>
      <text class="cls-8" transform="translate(28.04 118.76) rotate(-86.38)"><tspan x="0" y="0">I</tspan></text>
      <text class="cls-8" transform="translate(28.16 116.27) rotate(-83.69)"><tspan x="0" y="0">C</tspan></text>
      <text class="cls-8" transform="translate(28.74 110.8) rotate(-79.76)"><tspan x="0" y="0">O</tspan></text>
      <text class="cls-8" transform="translate(29.92 104.42) rotate(-76.05)"><tspan x="0" y="0">L</tspan></text>
      <text class="cls-8" transform="translate(30.98 100.01) rotate(-72.39)"><tspan x="0" y="0">O</tspan></text>
      <text class="cls-8" transform="translate(32.95 93.83) rotate(-68.23)"><tspan x="0" y="0">G</tspan></text>
      <text class="cls-8" transform="translate(35.19 88.34) rotate(-65.42)"><tspan x="0" y="0">I</tspan></text>
      <text class="cls-8" transform="translate(36.19 86.05) rotate(-62.64)"><tspan x="0" y="0">A</tspan></text>
      <text class="cls-3" transform="translate(57.73 56.85) rotate(-44.61)"><tspan x="0" y="0">A</tspan></text>
      <text class="cls-3" transform="translate(61.93 52.73) rotate(-40.83)"><tspan x="0" y="0">L</tspan></text>
      <text class="cls-3" transform="translate(65.43 49.71) rotate(-37.69)"><tspan x="0" y="0">L</tspan></text>
      <text class="cls-3" transform="translate(69.1 46.86) rotate(-34.44)"><tspan x="0" y="0">E</tspan></text>
      <text class="cls-3" transform="translate(73.32 43.95) rotate(-30.7)"><tspan x="0" y="0">N</tspan></text>
      <text class="cls-3" transform="translate(78.64 40.79) rotate(-26.7)"><tspan x="0" y="0">A</tspan></text>
      <text class="cls-3" transform="translate(83.87 38.12) rotate(-22.28)"><tspan x="0" y="0">M</tspan></text>
      <text class="cls-3" transform="translate(90.7 35.36) rotate(-18.08)"><tspan x="0" y="0">E</tspan></text>
      <text class="cls-3" transform="translate(95.58 33.75) rotate(-14.29)"><tspan x="0" y="0">N</tspan></text>
      <text class="cls-3" transform="translate(101.59 32.24) rotate(-10.67)"><tspan x="0" y="0">T</tspan></text>
      <text class="cls-3" transform="translate(106.17 31.34) rotate(-7.05)"><tspan x="0" y="0">O</tspan></text>
      <text class="cls-6" transform="translate(122.08 11.68) rotate(6.44)"><tspan x="0" y="0">1</tspan></text>
      <text class="cls-7" transform="translate(210.07 50.7) rotate(62.78)"><tspan x="0" y="0">2</tspan></text>
      <text class="cls-9" transform="translate(235.44 147.46) rotate(108.47)"><tspan x="0" y="0">3</tspan></text>
      <text class="cls-9" transform="translate(177.72 224.04) rotate(159.16)"><tspan x="0" y="0">4</tspan></text>
      <text class="cls-6" transform="translate(80.18 228.11) rotate(-146.43)"><tspan x="0" y="0">5</tspan></text>
      <text class="cls-5" transform="translate(16.09 152.32) rotate(-99.98)"><tspan x="0" y="0">6</tspan></text>
      <text class="cls-9" transform="translate(35.12 57.83) rotate(-50.24)"><tspan x="0" y="0">7</tspan></text>
      <g>
        <path class="cls-13" d="m127.74,71.02c28.24,1.55,50.66,24.94,50.66,53.57s-24.02,53.65-53.65,53.65-53.65-24.02-53.65-53.65c0-21.66,12.84-40.32,31.32-48.79"/>
        <path class="cls-15" d="m104.46,79.39l-3.59-7.18c-.26-.52.24-1.1.8-.92l5.38,1.79c.34.11.53.49.42.83l-1.79,5.38c-.18.56-.95.61-1.21.09Z"/>
      </g>
    </g>
    <text/>
  </g>
</svg>