<svg width="307" height="34" viewBox="0 0 307 34" fill="none" xmlns="http://www.w3.org/2000/svg">
<path d="M165.965 31.3292V22.8819C165.965 21.9263 167.004 21.4282 167.644 22.0687C168.349 22.7802 169.082 23.5121 169.667 24.1017C170.075 24.5083 170.696 24.4677 171.077 24.0306C176.161 18.1144 174.89 6.83092 168.164 6.82075C166.447 6.82075 161.243 6.81059 158.524 6.80042C157.977 6.80042 157.541 7.28836 157.541 7.88811V31.7358C157.541 32.1323 157.244 32.4474 156.891 32.4474H151.649C151.297 32.4576 151 32.1424 151 31.746V1.69746C151 1.08754 151.445 0.599609 152.002 0.599609C152.141 0.599609 152.28 0.599609 152.382 0.599609C158.571 0.650436 164.759 0.72159 170.928 0.894399C176.745 1.06721 186.227 15.3393 175.159 27.995C174.769 28.4423 174.779 29.1437 175.196 29.5605C175.502 29.8654 175.827 30.1806 176.152 30.5058C176.838 31.1767 176.402 32.4271 175.484 32.4271H166.967C166.41 32.4271 165.965 31.9391 165.965 31.3292Z" fill="#EC6566"/>
<path d="M210.349 27.6291V31.3598C210.349 31.9697 209.904 32.4576 209.347 32.4576H188.806C188.25 32.4576 187.804 31.9697 187.804 31.3598V1.64668C187.804 1.03676 188.25 0.548828 188.806 0.548828H208.809C209.365 0.548828 209.811 1.03676 209.811 1.64668V5.37733C209.811 5.98725 209.365 6.47518 208.809 6.47518H195.505C194.948 6.47518 194.503 6.96311 194.503 7.57303V12.3101C194.503 12.92 194.948 13.4079 195.505 13.4079H207.018C207.575 13.4079 208.02 13.8958 208.02 14.5057V18.0534C208.02 18.6633 207.575 19.1513 207.018 19.1513H195.505C194.948 19.1513 194.503 19.6392 194.503 20.2491V25.4334C194.503 26.0433 194.948 26.5313 195.505 26.5313H209.347C209.904 26.5313 210.349 27.0192 210.349 27.6291Z" fill="#EC6566"/>
<path d="M213.772 28.4831L215.238 24.9252C215.489 24.3153 216.166 24.1019 216.685 24.4475C219.079 26.0231 222.271 27.0803 225.332 27.0803C229.331 27.0803 230.945 25.6266 230.945 23.6647C230.945 17.6977 214.013 21.7943 214.013 9.94163C214.013 4.51338 218.003 0 226.288 0C229.609 0 232.995 0.782723 235.621 2.32784C236.076 2.59214 236.261 3.19189 236.076 3.71032L234.74 7.30883C234.517 7.89841 233.886 8.16271 233.367 7.87808C230.964 6.56676 228.524 5.92635 226.251 5.92635C222.252 5.92635 220.721 7.56296 220.721 9.57568C220.721 15.4512 237.653 11.3953 237.653 23.1158C237.653 28.4526 233.617 33.0066 225.295 33.0066C221.064 33.0066 216.806 31.7461 214.134 29.8554C213.717 29.5606 213.577 28.9812 213.772 28.4831Z" fill="#EC6566"/>
<path d="M264.818 27.6291V31.3598C264.818 31.9697 264.373 32.4576 263.816 32.4576H243.275C242.719 32.4576 242.273 31.9697 242.273 31.3598V1.64668C242.273 1.03676 242.719 0.548828 243.275 0.548828H263.278C263.835 0.548828 264.28 1.03676 264.28 1.64668V5.37733C264.28 5.98725 263.835 6.47518 263.278 6.47518H249.974C249.417 6.47518 248.972 6.96311 248.972 7.57303V12.3101C248.972 12.92 249.417 13.4079 249.974 13.4079H261.487C262.044 13.4079 262.489 13.8958 262.489 14.5057V18.0534C262.489 18.6633 262.044 19.1513 261.487 19.1513H249.974C249.417 19.1513 248.972 19.6392 248.972 20.2491V25.4334C248.972 26.0433 249.417 26.5313 249.974 26.5313H263.816C264.373 26.5313 264.818 27.0192 264.818 27.6291Z" fill="#EC6566"/>
<path d="M275.219 6.56667H267.908C267.351 6.56667 266.906 6.07874 266.906 5.46882V1.64668C266.906 1.03676 267.351 0.548828 267.908 0.548828H291.325C291.853 0.548828 292.28 1.01643 292.28 1.59585V5.51965C292.28 6.09907 291.853 6.56667 291.325 6.56667H283.967C283.411 6.56667 282.965 7.0546 282.965 7.66452V31.3598C282.965 31.9697 282.52 32.4576 281.963 32.4576H277.232C276.675 32.4576 276.23 31.9697 276.23 31.3598V7.66452C276.23 7.0546 275.784 6.56667 275.228 6.56667H275.219Z" fill="#EC6566"/>
<path d="M41.7098 23.6668C41.7098 29.1671 37.7298 32.3445 30.0998 32.3445H16.1698C15.5798 32.3445 15.0898 31.8186 15.0898 31.1612V1.72044C15.0898 1.07399 15.5698 0.537109 16.1698 0.537109H29.2698C36.5298 0.537109 40.2598 3.857 40.2598 8.80944C40.2598 11.2418 39.3798 13.2579 37.9098 14.6713C37.3398 15.2191 37.4298 16.1943 38.0898 16.5997C40.3398 18.0021 41.7098 20.4017 41.7098 23.6558V23.6668ZM21.7598 7.26454V12.4033C21.7598 13.0497 22.2398 13.5866 22.8398 13.5866H28.4398C31.7198 13.5866 33.4998 12.3156 33.4998 9.81746C33.4998 7.31933 31.7198 6.09217 28.4398 6.09217H22.8398C22.2498 6.09217 21.7598 6.6181 21.7598 7.2755V7.26454ZM34.9398 22.8888C34.9398 20.2044 33.0698 18.9335 29.5898 18.9335H22.8298C22.2398 18.9335 21.7498 19.4594 21.7498 20.1168V25.6171C21.7498 26.2635 22.2298 26.8004 22.8298 26.8004H29.5898C33.0698 26.8004 34.9398 25.6171 34.9398 22.8888Z" fill="#3F3F3F"/>
<path d="M44.98 16.4461C44.98 7.00135 51.7 0 60.86 0C70.02 0 76.74 6.94657 76.74 16.4461C76.74 25.9455 69.98 32.8921 60.86 32.8921C51.74 32.8921 44.98 25.9017 44.98 16.4461ZM69.94 16.4461C69.94 10.4089 66.04 6.26725 60.86 6.26725C55.68 6.26725 51.78 10.3979 51.78 16.4461C51.78 22.4942 55.68 26.6249 60.86 26.6249C66.04 26.6249 69.94 22.4942 69.94 16.4461Z" fill="#3F3F3F"/>
<path d="M81.7998 1.72044C81.7998 1.07399 82.2798 0.537109 82.8798 0.537109H94.9898C104.48 0.537109 110.99 6.80436 110.99 16.4353C110.99 26.0663 104.48 32.3336 94.9898 32.3336H82.8798C82.2898 32.3336 81.7998 31.8076 81.7998 31.1502V1.72044ZM94.6498 26.2964C100.41 26.2964 104.18 22.5273 104.18 16.4353C104.18 10.3434 100.41 6.57427 94.6498 6.57427H89.5898C88.9998 6.57427 88.5098 7.10019 88.5098 7.7576V25.1131C88.5098 25.7595 88.9898 26.2964 89.5898 26.2964H94.6498Z" fill="#3F3F3F"/>
<path d="M128.74 21.4097V31.1612C128.74 31.8076 128.26 32.3445 127.66 32.3445H123.1C122.51 32.3445 122.02 31.8186 122.02 31.1612V21.3111C122.02 21.0919 121.97 20.8838 121.87 20.6975L111.77 2.32306C111.34 1.53417 111.85 0.537109 112.69 0.537109H117.31C117.69 0.537109 118.04 0.756244 118.23 1.10686L124.75 12.984C125.17 13.7509 126.18 13.7509 126.6 12.984L133.12 1.10686C133.31 0.756244 133.67 0.537109 134.04 0.537109H138.12C138.96 0.537109 139.48 1.53417 139.04 2.32306L128.9 20.7852C128.8 20.9714 128.75 21.1796 128.75 21.3987L128.74 21.4097Z" fill="#3F3F3F"/>
<path d="M2.43 18.5919C3.77205 18.5919 4.86 17.4 4.86 15.9297C4.86 14.4595 3.77205 13.2676 2.43 13.2676C1.08795 13.2676 0 14.4595 0 15.9297C0 17.4 1.08795 18.5919 2.43 18.5919Z" fill="#EC6566"/>
<path d="M304.43 18.5919C305.772 18.5919 306.86 17.4 306.86 15.9297C306.86 14.4595 305.772 13.2676 304.43 13.2676C303.088 13.2676 302 14.4595 302 15.9297C302 17.4 303.088 18.5919 304.43 18.5919Z" fill="#EC6566"/>
</svg>
