<svg width="153" height="71" viewBox="0 0 153 71" fill="none" xmlns="http://www.w3.org/2000/svg">
<g clip-path="url(#clip0_802_15)">
<path d="M16.13 68.5401V60.2301C16.13 59.2901 17.25 58.8001 17.94 59.4301C18.7 60.1301 19.49 60.8501 20.12 61.4301C20.56 61.8301 21.23 61.7901 21.64 61.3601C27.12 55.5401 25.75 44.4401 18.5 44.4301C16.65 44.4301 11.04 44.4201 8.11 44.4101C7.52 44.4101 7.05 44.8901 7.05 45.4801V68.9401C7.05 69.3301 6.73 69.6401 6.35 69.6401H0.7C0.32 69.6501 0 69.3401 0 68.9501V39.3901C0 38.7901 0.48 38.3101 1.08 38.3101C1.23 38.3101 1.38 38.3101 1.49 38.3101C8.16 38.3601 14.83 38.4301 21.48 38.6001C27.75 38.7701 37.97 52.8101 26.04 65.2601C25.62 65.7001 25.63 66.3901 26.08 66.8001C26.41 67.1001 26.76 67.4101 27.11 67.7301C27.85 68.3901 27.38 69.6201 26.39 69.6201H17.21C16.61 69.6201 16.13 69.1401 16.13 68.5401Z" fill="#EC6566"/>
<path d="M63.9699 64.9003V68.5703C63.9699 69.1703 63.4899 69.6503 62.8899 69.6503H40.7499C40.1499 69.6503 39.6699 69.1703 39.6699 68.5703V39.3403C39.6699 38.7403 40.1499 38.2603 40.7499 38.2603H62.3099C62.9099 38.2603 63.3899 38.7403 63.3899 39.3403V43.0103C63.3899 43.6103 62.9099 44.0903 62.3099 44.0903H47.9699C47.3699 44.0903 46.8899 44.5703 46.8899 45.1703V49.8303C46.8899 50.4303 47.3699 50.9103 47.9699 50.9103H60.3799C60.9799 50.9103 61.4599 51.3903 61.4599 51.9903V55.4803C61.4599 56.0803 60.9799 56.5603 60.3799 56.5603H47.9699C47.3699 56.5603 46.8899 57.0403 46.8899 57.6403V62.7403C46.8899 63.3403 47.3699 63.8203 47.9699 63.8203H62.8899C63.4899 63.8203 63.9699 64.3003 63.9699 64.9003Z" fill="#EC6566"/>
<path d="M67.6598 65.7402L69.2398 62.2402C69.5098 61.6402 70.2398 61.4302 70.7998 61.7702C73.3798 63.3202 76.8198 64.3602 80.1198 64.3602C84.4298 64.3602 86.1698 62.9302 86.1698 61.0002C86.1698 55.1302 67.9198 59.1602 67.9198 47.5002C67.9198 42.1602 72.2198 37.7202 81.1498 37.7202C84.7298 37.7202 88.3798 38.4902 91.2098 40.0102C91.6998 40.2702 91.8998 40.8602 91.6998 41.3702L90.2598 44.9102C90.0198 45.4902 89.3398 45.7502 88.7798 45.4702C86.1898 44.1802 83.5598 43.5502 81.1098 43.5502C76.7998 43.5502 75.1498 45.1602 75.1498 47.1402C75.1498 52.9202 93.3998 48.9302 93.3998 60.4602C93.3998 65.7102 89.0498 70.1902 80.0798 70.1902C75.5198 70.1902 70.9298 68.9502 68.0498 67.0902C67.5998 66.8002 67.4498 66.2302 67.6598 65.7402Z" fill="#EC6566"/>
<path d="M122.68 64.9003V68.5703C122.68 69.1703 122.2 69.6503 121.6 69.6503H99.4599C98.8599 69.6503 98.3799 69.1703 98.3799 68.5703V39.3403C98.3799 38.7403 98.8599 38.2603 99.4599 38.2603H121.02C121.62 38.2603 122.1 38.7403 122.1 39.3403V43.0103C122.1 43.6103 121.62 44.0903 121.02 44.0903H106.68C106.08 44.0903 105.6 44.5703 105.6 45.1703V49.8303C105.6 50.4303 106.08 50.9103 106.68 50.9103H119.09C119.69 50.9103 120.17 51.3903 120.17 51.9903V55.4803C120.17 56.0803 119.69 56.5603 119.09 56.5603H106.68C106.08 56.5603 105.6 57.0403 105.6 57.6403V62.7403C105.6 63.3403 106.08 63.8203 106.68 63.8203H121.6C122.2 63.8203 122.68 64.3003 122.68 64.9003Z" fill="#EC6566"/>
<path d="M133.89 44.1803H126.01C125.41 44.1803 124.93 43.7003 124.93 43.1003V39.3403C124.93 38.7403 125.41 38.2603 126.01 38.2603H151.25C151.82 38.2603 152.28 38.7203 152.28 39.2903V43.1503C152.28 43.7203 151.82 44.1803 151.25 44.1803H143.32C142.72 44.1803 142.24 44.6603 142.24 45.2603V68.5703C142.24 69.1703 141.76 69.6503 141.16 69.6503H136.06C135.46 69.6503 134.98 69.1703 134.98 68.5703V45.2603C134.98 44.6603 134.5 44.1803 133.9 44.1803H133.89Z" fill="#EC6566"/>
<path d="M41.7098 21.6002C41.7098 26.6202 37.7298 29.5202 30.0998 29.5202H16.1698C15.5798 29.5202 15.0898 29.0402 15.0898 28.4402V1.57023C15.0898 0.980234 15.5698 0.490234 16.1698 0.490234H29.2698C36.5298 0.490234 40.2598 3.52023 40.2598 8.04023C40.2598 10.2602 39.3798 12.1002 37.9098 13.3902C37.3398 13.8902 37.4298 14.7802 38.0898 15.1502C40.3398 16.4302 41.7098 18.6202 41.7098 21.5902V21.6002ZM21.7598 6.63023V11.3202C21.7598 11.9102 22.2398 12.4002 22.8398 12.4002H28.4398C31.7198 12.4002 33.4998 11.2402 33.4998 8.96023C33.4998 6.68023 31.7198 5.56023 28.4398 5.56023H22.8398C22.2498 5.56023 21.7598 6.04023 21.7598 6.64023V6.63023ZM34.9398 20.8902C34.9398 18.4402 33.0698 17.2802 29.5898 17.2802H22.8298C22.2398 17.2802 21.7498 17.7602 21.7498 18.3602V23.3802C21.7498 23.9702 22.2298 24.4602 22.8298 24.4602H29.5898C33.0698 24.4602 34.9398 23.3802 34.9398 20.8902Z" fill="#3F3F3F"/>
<path d="M44.98 15.01C44.98 6.39 51.7 0 60.86 0C70.02 0 76.74 6.34 76.74 15.01C76.74 23.68 69.98 30.02 60.86 30.02C51.74 30.02 44.98 23.64 44.98 15.01ZM69.94 15.01C69.94 9.5 66.04 5.72 60.86 5.72C55.68 5.72 51.78 9.49 51.78 15.01C51.78 20.53 55.68 24.3 60.86 24.3C66.04 24.3 69.94 20.53 69.94 15.01Z" fill="#3F3F3F"/>
<path d="M81.7998 1.57023C81.7998 0.980234 82.2798 0.490234 82.8798 0.490234H94.9898C104.48 0.490234 110.99 6.21023 110.99 15.0002C110.99 23.7902 104.48 29.5102 94.9898 29.5102H82.8798C82.2898 29.5102 81.7998 29.0302 81.7998 28.4302V1.57023ZM94.6498 24.0002C100.41 24.0002 104.18 20.5602 104.18 15.0002C104.18 9.44024 100.41 6.00023 94.6498 6.00023H89.5898C88.9998 6.00023 88.5098 6.48023 88.5098 7.08023V22.9202C88.5098 23.5102 88.9898 24.0002 89.5898 24.0002H94.6498Z" fill="#3F3F3F"/>
<path d="M128.74 19.5402V28.4402C128.74 29.0302 128.26 29.5202 127.66 29.5202H123.1C122.51 29.5202 122.02 29.0402 122.02 28.4402V19.4502C122.02 19.2502 121.97 19.0602 121.87 18.8902L111.77 2.12023C111.34 1.40023 111.85 0.490234 112.69 0.490234H117.31C117.69 0.490234 118.04 0.690234 118.23 1.01023L124.75 11.8502C125.17 12.5502 126.18 12.5502 126.6 11.8502L133.12 1.01023C133.31 0.690234 133.67 0.490234 134.04 0.490234H138.12C138.96 0.490234 139.48 1.40023 139.04 2.12023L128.9 18.9702C128.8 19.1402 128.75 19.3302 128.75 19.5302L128.74 19.5402Z" fill="#3F3F3F"/>
<path d="M2.43 16.9699C3.77205 16.9699 4.86 15.8819 4.86 14.5399C4.86 13.1978 3.77205 12.1099 2.43 12.1099C1.08795 12.1099 0 13.1978 0 14.5399C0 15.8819 1.08795 16.9699 2.43 16.9699Z" fill="#EC6566"/>
<path d="M149.84 16.9699C151.182 16.9699 152.27 15.8819 152.27 14.5399C152.27 13.1978 151.182 12.1099 149.84 12.1099C148.498 12.1099 147.41 13.1978 147.41 14.5399C147.41 15.8819 148.498 16.9699 149.84 16.9699Z" fill="#EC6566"/>
</g>
<defs>
<clipPath id="clip0_802_15">
<rect width="152.28" height="70.19" fill="white"/>
</clipPath>
</defs>
</svg>
