<svg width="279" height="54" viewBox="0 0 279 54" fill="none" xmlns="http://www.w3.org/2000/svg">
<g clip-path="url(#clip0_881_282)">
<path d="M153.526 0.0207391C153.457 0.132903 153.398 0.252876 153.348 0.379019C153.108 1.12277 153.025 1.92901 153.107 2.72259C153.169 3.29076 153.258 3.85381 153.375 4.4086C153.594 5.48344 153.824 6.55406 154.027 7.6289C154.215 8.68436 154.353 9.75265 154.438 10.8281C154.56 12.3844 154.602 13.9483 154.565 15.511C154.518 17.1262 154.302 18.7272 153.92 20.274C153.293 22.9556 152.341 25.5061 151.097 27.8401C150.984 28.0551 150.867 28.2616 150.754 28.4807C150.711 28.5489 150.691 28.6342 150.697 28.7199C150.702 28.8056 150.734 28.8856 150.785 28.9444C150.943 29.1846 151.128 29.4207 151.269 29.6652C151.704 30.3312 152.072 31.0603 152.363 31.8359C152.625 32.5335 152.784 33.2828 152.833 34.0488C152.876 34.8487 152.759 35.6493 152.49 36.3797C152.26 37.0644 151.93 37.6915 151.516 38.2302C151.21 38.6179 150.891 38.9847 150.555 39.3345C150.13 39.7762 149.671 40.1646 149.183 40.4936C147.751 41.5274 146.471 42.8497 145.396 44.4051C144.703 45.3657 144.077 46.3964 143.526 47.4865C143.427 47.676 143.33 47.87 143.224 48.0554C143.207 48.0849 143.156 48.0849 143.121 48.0975C143.087 48.1102 143.097 48.0427 143.104 48.0174C143.385 46.5484 143.863 45.1469 144.517 43.8699C144.738 43.4724 144.977 43.0896 145.231 42.7233C145.872 41.7498 146.524 40.7886 147.162 39.8108C147.578 39.1614 147.906 38.4341 148.133 37.6569C148.339 36.9847 148.425 36.2658 148.384 35.5493C148.345 34.746 148.07 33.9877 147.608 33.4165C147.358 33.1004 147.231 33.0751 146.95 33.3196C145.767 34.3224 144.725 35.5537 143.862 36.9656C143.334 37.8304 142.898 38.7736 142.562 39.7728C142.237 40.7449 142.007 41.7607 141.876 42.7993C141.824 43.2207 141.818 43.6422 141.797 44.0637C141.674 46.7867 141.674 49.5138 141.643 52.2409V52.9239C141.614 52.9308 141.585 52.9308 141.557 52.9239C141.511 52.827 141.474 52.7237 141.447 52.616C141.193 50.9975 140.864 49.3958 140.511 47.8109C140.195 46.3549 139.979 44.8688 139.866 43.3683C139.765 42.0373 139.733 40.6999 139.77 39.3639C139.791 37.6052 139.965 35.8543 140.291 34.1416C140.613 32.5041 141.143 30.9393 141.862 29.5049C141.989 29.2605 142.106 29.0202 142.222 28.7757C142.237 28.7463 142.247 28.7136 142.251 28.6794C142.255 28.6453 142.254 28.6103 142.247 28.5769C142.24 28.5435 142.227 28.5121 142.21 28.4847C142.193 28.4573 142.171 28.4345 142.147 28.4176C142.006 28.3205 141.862 28.232 141.722 28.1309C140.76 27.4708 139.925 26.5628 139.276 25.4694C138.626 24.3758 138.177 23.1226 137.958 21.7957C137.806 20.82 137.815 19.8168 137.982 18.8452C138.214 17.3921 138.583 15.9773 139.084 14.6301C139.276 14.0821 139.478 13.5384 139.66 12.9862C139.928 12.1999 140.147 11.3896 140.315 10.5626C140.531 9.45585 140.543 8.30412 140.353 7.19054C140.301 6.88284 140.243 6.57935 140.192 6.27166C140.192 6.20422 140.192 6.16206 140.25 6.16628C140.261 6.16595 140.272 6.16882 140.282 6.17469C140.292 6.18053 140.301 6.18919 140.308 6.2C140.377 6.31456 140.44 6.43421 140.497 6.55829C141.135 8.00475 141.572 9.57176 141.79 11.1948C141.923 12.3194 141.966 13.4573 141.917 14.5922C141.917 14.9631 141.893 15.3339 141.886 15.7007C141.872 16.928 142.078 18.144 142.49 19.2624C143.105 20.9568 144.047 22.4412 145.234 23.5871C145.289 23.6387 145.347 23.6865 145.406 23.7304C145.445 23.7612 145.49 23.7777 145.536 23.7777C145.583 23.7777 145.628 23.7612 145.667 23.7304C145.982 23.3553 146.315 22.9969 146.607 22.5965C147.78 20.9478 148.792 19.1356 149.622 17.1971C150.54 15.1232 151.242 12.9153 151.711 10.6258C152.045 8.99871 152.208 7.32573 152.195 5.64782C152.195 4.99309 152.205 4.33976 152.226 3.68782C152.255 2.97135 152.361 2.26276 152.541 1.5803C152.659 1.02946 152.885 0.522723 153.2 0.10504C153.239 0.0522503 153.291 0.0169533 153.348 0.00473776C153.406 -0.00747773 153.464 0.00408648 153.516 0.0375993L153.526 0.0207391Z" fill="white"/>
</g>
<path d="M0 37.3836V17.2754H3.84929L12.4096 31.466H10.3701L18.7868 17.2754H22.6074L22.6648 37.3836H18.2985L18.2698 23.9685H19.0741L12.3522 35.2579H10.2552L3.38967 23.9685H4.36636V37.3836H0Z" fill="white"/>
<path d="M37.2024 37.7283C35.6129 37.7283 34.1383 37.4698 32.7786 36.9527C31.4381 36.4356 30.2699 35.7079 29.2741 34.7695C28.2974 33.8311 27.5313 32.73 26.976 31.466C26.4398 30.2021 26.1717 28.8232 26.1717 27.3295C26.1717 25.8357 26.4398 24.4569 26.976 23.1929C27.5313 21.929 28.307 20.8278 29.3028 19.8894C30.2986 18.9511 31.4668 18.2233 32.8074 17.7063C34.1479 17.1892 35.6034 16.9307 37.1737 16.9307C38.7632 16.9307 40.2187 17.1892 41.5401 17.7063C42.8806 18.2233 44.0392 18.9511 45.0159 19.8894C46.0118 20.8278 46.7874 21.929 47.3427 23.1929C47.8981 24.4377 48.1758 25.8166 48.1758 27.3295C48.1758 28.8232 47.8981 30.2117 47.3427 31.4948C46.7874 32.7587 46.0118 33.8599 45.0159 34.7983C44.0392 35.7175 42.8806 36.4356 41.5401 36.9527C40.2187 37.4698 38.7728 37.7283 37.2024 37.7283ZM37.1737 33.7641C38.0738 33.7641 38.8973 33.6109 39.6442 33.3045C40.4102 32.9981 41.0805 32.5576 41.655 31.9831C42.2295 31.4086 42.67 30.7287 42.9764 29.9436C43.3019 29.1584 43.4647 28.287 43.4647 27.3295C43.4647 26.372 43.3019 25.5006 42.9764 24.7154C42.67 23.9302 42.2295 23.2504 41.655 22.6759C41.0996 22.1013 40.4389 21.6609 39.6729 21.3545C38.9069 21.0481 38.0738 20.8949 37.1737 20.8949C36.2736 20.8949 35.4406 21.0481 34.6746 21.3545C33.9277 21.6609 33.267 22.1013 32.6925 22.6759C32.1179 23.2504 31.6679 23.9302 31.3423 24.7154C31.0359 25.5006 30.8827 26.372 30.8827 27.3295C30.8827 28.2679 31.0359 29.1392 31.3423 29.9436C31.6679 30.7287 32.1084 31.4086 32.6637 31.9831C33.2383 32.5576 33.9085 32.9981 34.6746 33.3045C35.4406 33.6109 36.2736 33.7641 37.1737 33.7641Z" fill="white"/>
<path d="M51.6732 37.3836V17.2754H55.5225L67.3863 31.7533H65.5191V17.2754H70.1153V37.3836H66.2947L54.4022 22.9057H56.2693V37.3836H51.6732Z" fill="white"/>
<path d="M74.8728 37.3836V17.2754H79.5264V37.3836H74.8728Z" fill="white"/>
<path d="M93.9218 37.7283C92.3706 37.7283 90.9247 37.4793 89.5841 36.9814C88.2627 36.4644 87.1137 35.7366 86.137 34.7983C85.1603 33.8599 84.3943 32.7587 83.8389 31.4948C83.3027 30.2308 83.0346 28.8424 83.0346 27.3295C83.0346 25.8166 83.3027 24.4282 83.8389 23.1642C84.3943 21.9003 85.1603 20.7991 86.137 19.8607C87.1329 18.9223 88.2915 18.2042 89.6129 17.7063C90.9343 17.1892 92.3801 16.9307 93.9505 16.9307C95.6932 16.9307 97.2636 17.2371 98.6616 17.8499C100.079 18.4436 101.266 19.3245 102.224 20.4927L99.2361 23.2504C98.5467 22.4652 97.7806 21.8811 96.938 21.4981C96.0954 21.0959 95.1761 20.8949 94.1803 20.8949C93.2419 20.8949 92.3801 21.0481 91.595 21.3545C90.8098 21.6609 90.1299 22.1013 89.5554 22.6759C88.9809 23.2504 88.5308 23.9302 88.2053 24.7154C87.8989 25.5006 87.7457 26.372 87.7457 27.3295C87.7457 28.287 87.8989 29.1584 88.2053 29.9436C88.5308 30.7287 88.9809 31.4086 89.5554 31.9831C90.1299 32.5576 90.8098 32.9981 91.595 33.3045C92.3801 33.6109 93.2419 33.7641 94.1803 33.7641C95.1761 33.7641 96.0954 33.5726 96.938 33.1896C97.7806 32.7874 98.5467 32.1842 99.2361 31.3799L102.224 34.1376C101.266 35.3057 100.079 36.1963 98.6616 36.8091C97.2636 37.4219 95.6836 37.7283 93.9218 37.7283Z" fill="white"/>
<path d="M102.359 37.3836L111.321 17.2754H115.917L124.909 37.3836H120.025L112.671 19.6309H114.51L107.127 37.3836H102.359ZM106.84 33.0747L108.075 29.5414H118.417L119.68 33.0747H106.84Z" fill="white"/>
<path d="M180.829 37.7283C179.278 37.7283 177.832 37.4793 176.492 36.9814C175.17 36.4644 174.021 35.7366 173.045 34.7983C172.068 33.8599 171.302 32.7587 170.747 31.4948C170.21 30.2308 169.942 28.8424 169.942 27.3295C169.942 25.8166 170.21 24.4282 170.747 23.1642C171.302 21.9003 172.068 20.7991 173.045 19.8607C174.04 18.9223 175.199 18.2042 176.52 17.7063C177.842 17.1892 179.288 16.9307 180.858 16.9307C182.601 16.9307 184.171 17.2371 185.569 17.8499C186.986 18.4436 188.174 19.3245 189.131 20.4927L186.144 23.2504C185.454 22.4652 184.688 21.8811 183.846 21.4981C183.003 21.0959 182.084 20.8949 181.088 20.8949C180.15 20.8949 179.288 21.0481 178.503 21.3545C177.717 21.6609 177.038 22.1013 176.463 22.6759C175.889 23.2504 175.438 23.9302 175.113 24.7154C174.806 25.5006 174.653 26.372 174.653 27.3295C174.653 28.287 174.806 29.1584 175.113 29.9436C175.438 30.7287 175.889 31.4086 176.463 31.9831C177.038 32.5576 177.717 32.9981 178.503 33.3045C179.288 33.6109 180.15 33.7641 181.088 33.7641C182.084 33.7641 183.003 33.5726 183.846 33.1896C184.688 32.7874 185.454 32.1842 186.144 31.3799L189.131 34.1376C188.174 35.3057 186.986 36.1963 185.569 36.8091C184.171 37.4219 182.591 37.7283 180.829 37.7283Z" fill="white"/>
<path d="M196.554 25.3761H206.235V28.9956H196.554V25.3761ZM196.899 33.6492H207.843V37.3836H192.274V17.2754H207.47V21.0098H196.899V33.6492Z" fill="white"/>
<path d="M211.546 37.3836V17.2754H215.395L227.259 31.7533H225.392V17.2754H229.988V37.3836H226.168L214.275 22.9057H216.142V37.3836H211.546Z" fill="white"/>
<path d="M238.911 37.3836V21.0672H232.476V17.2754H249.999V21.0672H243.565V37.3836H238.911Z" fill="white"/>
<path d="M252.503 37.3836V17.2754H261.207C263.007 17.2754 264.558 17.5722 265.861 18.1659C267.163 18.7404 268.168 19.5735 268.877 20.665C269.585 21.7566 269.94 23.0589 269.94 24.5718C269.94 26.0655 269.585 27.3582 268.877 28.4498C268.168 29.5222 267.163 30.3457 265.861 30.9202C264.558 31.4948 263.007 31.782 261.207 31.782H255.088L257.157 29.7425V37.3836H252.503ZM265.286 37.3836L260.259 30.0872H265.229L270.313 37.3836H265.286ZM257.157 30.2595L255.088 28.0764H260.948C262.385 28.0764 263.457 27.77 264.166 27.1571C264.874 26.5252 265.229 25.6634 265.229 24.5718C265.229 23.461 264.874 22.5993 264.166 21.9864C263.457 21.3736 262.385 21.0672 260.948 21.0672H255.088L257.157 18.8553V30.2595Z" fill="white"/>
<path d="M273.627 37.3836V17.2754H278.28V37.3836H273.627Z" fill="white"/>
<defs>
<clipPath id="clip0_881_282">
<rect width="16.7438" height="53.0219" fill="white" transform="translate(137.85)"/>
</clipPath>
</defs>
</svg>
