<?xml version="1.0" encoding="UTF-8"?>
<svg id="Livello_2" data-name="Livello 2" xmlns="http://www.w3.org/2000/svg" viewBox="0 0 595.28 95.35">
  <defs>
    <style>
      .cls-1 {
        fill: #3f3f3f;
      }

      .cls-2 {
        fill: #ec6566;
      }
    </style>
  </defs>
  <g id="Livello_1-2" data-name="Livello 1">
    <g>
      <g>
        <path class="cls-2" d="m0,38.51l236.89.09c6.27.17,16.49,14.21,4.56,26.66-.42.44-.41,1.13.04,1.54.33.3.68.61,1.03.93.74.66.27,1.89-.72,1.89h-9.18c-.6,0-1.08-.48-1.08-1.08v-8.31c0-.94,1.12-1.43,1.81-.8.76.7,1.55,1.42,2.18,2,.44.4,1.11.36,1.52-.07,5.48-5.82,4.11-16.92-3.14-16.93-1.85,0-230.98-.01-233.91-.02"/>
        <path class="cls-2" d="m279.38,64.9v3.67c0,.6-.48,1.08-1.08,1.08h-22.14c-.6,0-1.08-.48-1.08-1.08v-29.23c0-.6.48-1.08,1.08-1.08h21.56c.6,0,1.08.48,1.08,1.08v3.67c0,.6-.48,1.08-1.08,1.08h-14.34c-.6,0-1.08.48-1.08,1.08v4.66c0,.6.48,1.08,1.08,1.08h12.41c.6,0,1.08.48,1.08,1.08v3.49c0,.6-.48,1.08-1.08,1.08h-12.41c-.6,0-1.08.48-1.08,1.08v5.1c0,.6.48,1.08,1.08,1.08h14.92c.6,0,1.08.48,1.08,1.08Z"/>
        <path class="cls-2" d="m283.07,65.74l1.58-3.5c.27-.6,1-.81,1.56-.47,2.58,1.55,6.02,2.59,9.32,2.59,4.31,0,6.05-1.43,6.05-3.36,0-5.87-18.25-1.84-18.25-13.5,0-5.34,4.3-9.78,13.23-9.78,3.58,0,7.23.77,10.06,2.29.49.26.69.85.49,1.36l-1.44,3.54c-.24.58-.92.84-1.48.56-2.59-1.29-5.22-1.92-7.67-1.92-4.31,0-5.96,1.61-5.96,3.59,0,5.78,18.25,1.79,18.25,13.32,0,5.25-4.35,9.73-13.32,9.73-4.56,0-9.15-1.24-12.03-3.1-.45-.29-.6-.86-.39-1.35Z"/>
        <path class="cls-2" d="m338.09,64.9v3.67c0,.6-.48,1.08-1.08,1.08h-22.14c-.6,0-1.08-.48-1.08-1.08v-29.23c0-.6.48-1.08,1.08-1.08h21.56c.6,0,1.08.48,1.08,1.08v3.67c0,.6-.48,1.08-1.08,1.08h-14.34c-.6,0-1.08.48-1.08,1.08v4.66c0,.6.48,1.08,1.08,1.08h12.41c.6,0,1.08.48,1.08,1.08v3.49c0,.6-.48,1.08-1.08,1.08h-12.41c-.6,0-1.08.48-1.08,1.08v5.1c0,.6.48,1.08,1.08,1.08h14.92c.6,0,1.08.48,1.08,1.08Z"/>
        <path class="cls-2" d="m349.3,44.18h-7.88c-.6,0-1.08-.48-1.08-1.08v-3.76c0-.6.48-1.08,1.08-1.08h253.86v5.92h-236.56c-.6,0-1.08.48-1.08,1.08v23.31c0,.6-.48,1.08-1.08,1.08h-5.1c-.6,0-1.08-.48-1.08-1.08v-23.31c0-.6-.48-1.08-1.08-1.08Z"/>
      </g>
      <g>
        <g>
          <path class="cls-1" d="m265.17,21.6c0,5.02-3.98,7.92-11.61,7.92h-13.93c-.59,0-1.08-.48-1.08-1.08V1.57c0-.59.48-1.08,1.08-1.08h13.1c7.26,0,10.99,3.03,10.99,7.55,0,2.22-.88,4.06-2.35,5.35-.57.5-.48,1.39.18,1.76,2.25,1.28,3.62,3.47,3.62,6.44Zm-19.94-14.97v4.69c0,.59.48,1.08,1.08,1.08h5.6c3.28,0,5.06-1.16,5.06-3.44s-1.78-3.4-5.06-3.4h-5.6c-.59,0-1.08.48-1.08,1.08Zm13.18,14.26c0-2.45-1.87-3.61-5.35-3.61h-6.76c-.59,0-1.08.48-1.08,1.08v5.02c0,.59.48,1.08,1.08,1.08h6.76c3.48,0,5.35-1.08,5.35-3.57Z"/>
          <path class="cls-1" d="m268.45,15.01c0-8.62,6.72-15.01,15.88-15.01s15.88,6.34,15.88,15.01-6.76,15.01-15.88,15.01-15.88-6.38-15.88-15.01Zm24.96,0c0-5.51-3.9-9.29-9.08-9.29s-9.08,3.77-9.08,9.29,3.9,9.29,9.08,9.29,9.08-3.77,9.08-9.29Z"/>
          <path class="cls-1" d="m305.27,1.57c0-.59.48-1.08,1.08-1.08h12.11c9.49,0,16,5.72,16,14.51s-6.51,14.51-16,14.51h-12.11c-.59,0-1.08-.48-1.08-1.08V1.57Zm12.85,22.43c5.76,0,9.53-3.44,9.53-9s-3.77-9-9.53-9h-5.06c-.59,0-1.08.48-1.08,1.08v15.84c0,.59.48,1.08,1.08,1.08h5.06Z"/>
          <path class="cls-1" d="m352.2,19.54v8.9c0,.59-.48,1.08-1.08,1.08h-4.56c-.59,0-1.08-.48-1.08-1.08v-8.99c0-.2-.05-.39-.15-.56l-10.1-16.77c-.43-.72.08-1.63.92-1.63h4.62c.38,0,.73.2.92.52l6.52,10.84c.42.7,1.43.7,1.85,0l6.52-10.84c.19-.32.55-.52.92-.52h4.08c.84,0,1.36.91.92,1.63l-10.14,16.85c-.1.17-.15.36-.15.56Z"/>
        </g>
        <circle class="cls-2" cx="225.9" cy="14.54" r="2.43"/>
        <circle class="cls-2" cx="373.31" cy="14.54" r="2.43"/>
      </g>
      <g>
        <g>
          <path class="cls-1" d="m232.4,92.98l-1.75-2.5c-.11.01-.22.01-.33.01h-1.93v2.49h-1.59v-8.55h3.52c2.25,0,3.64,1.15,3.64,3.04,0,1.3-.66,2.25-1.82,2.7l1.97,2.81h-1.71Zm-2.15-7.21h-1.86v3.41h1.86c1.39,0,2.11-.64,2.11-1.71s-.72-1.7-2.11-1.7Z"/>
          <path class="cls-1" d="m235.38,84.46c0-.51.41-.92.98-.92s.98.38.98.88c0,.54-.4.95-.98.95s-.98-.4-.98-.92Zm.21,1.99h1.53v6.52h-1.53v-6.52Z"/>
          <path class="cls-1" d="m245.23,86.46l-2.8,6.52h-1.57l-2.8-6.52h1.59l2.03,4.84,2.09-4.84h1.47Z"/>
          <path class="cls-1" d="m245.46,89.72c0-1.95,1.46-3.33,3.47-3.33s3.48,1.38,3.48,3.33-1.45,3.35-3.48,3.35-3.47-1.39-3.47-3.35Zm5.41,0c0-1.24-.83-2.04-1.94-2.04s-1.93.79-1.93,2.04.83,2.04,1.93,2.04,1.94-.79,1.94-2.04Z"/>
          <path class="cls-1" d="m253.88,83.91h1.53v9.06h-1.53v-9.06Z"/>
          <path class="cls-1" d="m263.72,86.46v6.52h-1.45v-.83c-.49.6-1.26.92-2.1.92-1.67,0-2.81-.92-2.81-2.88v-3.72h1.53v3.52c0,1.18.56,1.75,1.53,1.75,1.06,0,1.78-.66,1.78-1.97v-3.3h1.53Z"/>
          <path class="cls-1" d="m270.82,91.75v1.22h-5.63v-.97l3.58-4.34h-3.51v-1.22h5.46v.96l-3.59,4.34h3.69Z"/>
          <path class="cls-1" d="m272.02,84.46c0-.51.41-.92.98-.92s.98.38.98.88c0,.54-.4.95-.98.95s-.98-.4-.98-.92Zm.21,1.99h1.53v6.52h-1.53v-6.52Z"/>
          <path class="cls-1" d="m275.23,89.72c0-1.95,1.46-3.33,3.47-3.33s3.48,1.38,3.48,3.33-1.45,3.35-3.48,3.35-3.47-1.39-3.47-3.35Zm5.41,0c0-1.24-.83-2.04-1.94-2.04s-1.93.79-1.93,2.04.83,2.04,1.93,2.04,1.94-.79,1.94-2.04Z"/>
          <path class="cls-1" d="m290.07,89.24v3.74h-1.53v-3.54c0-1.16-.57-1.72-1.55-1.72-1.09,0-1.82.66-1.82,1.97v3.3h-1.53v-6.52h1.45v.84c.5-.6,1.29-.92,2.25-.92,1.56,0,2.72.89,2.72,2.86Z"/>
          <path class="cls-1" d="m297.47,89.15v3.82h-1.44v-.79c-.37.56-1.07.88-2.05.88-1.49,0-2.43-.82-2.43-1.95s.73-1.94,2.71-1.94h1.69v-.1c0-.89-.54-1.42-1.62-1.42-.73,0-1.49.24-1.98.65l-.6-1.11c.7-.54,1.71-.81,2.76-.81,1.88,0,2.97.89,2.97,2.77Zm-1.53,1.78v-.76h-1.57c-1.04,0-1.32.39-1.32.87,0,.55.46.9,1.25.9s1.39-.34,1.65-1.01Z"/>
          <path class="cls-1" d="m302.59,84.46c0-.51.41-.92.98-.92s.98.38.98.88c0,.54-.4.95-.98.95s-.98-.4-.98-.92Zm.21,1.99h1.53v6.52h-1.53v-6.52Z"/>
          <path class="cls-1" d="m306.33,83.91h1.53v9.06h-1.53v-9.06Z"/>
          <path class="cls-1" d="m317.15,92.62c-.37.29-.92.44-1.47.44-1.43,0-2.25-.76-2.25-2.2v-3.14h-1.07v-1.22h1.07v-1.49h1.53v1.49h1.75v1.22h-1.75v3.1c0,.64.32.98.9.98.32,0,.62-.09.85-.27l.43,1.09Z"/>
          <path class="cls-1" d="m324.73,86.46v6.52h-1.45v-.83c-.49.6-1.26.92-2.1.92-1.67,0-2.81-.92-2.81-2.88v-3.72h1.53v3.52c0,1.18.56,1.75,1.53,1.75,1.06,0,1.78-.66,1.78-1.97v-3.3h1.53Z"/>
          <path class="cls-1" d="m326.2,89.72c0-1.95,1.46-3.33,3.47-3.33s3.48,1.38,3.48,3.33-1.45,3.35-3.48,3.35-3.47-1.39-3.47-3.35Zm5.41,0c0-1.24-.83-2.04-1.94-2.04s-1.93.79-1.93,2.04.83,2.04,1.93,2.04,1.94-.79,1.94-2.04Z"/>
          <path class="cls-1" d="m337.45,89.72c0-1.95,1.46-3.33,3.53-3.33,1.27,0,2.28.52,2.78,1.51l-1.17.68c-.39-.62-.98-.9-1.62-.9-1.12,0-1.98.78-1.98,2.04s.85,2.04,1.98,2.04c.65,0,1.23-.28,1.62-.9l1.17.68c-.5.98-1.51,1.53-2.78,1.53-2.07,0-3.53-1.39-3.53-3.35Z"/>
          <path class="cls-1" d="m344.45,89.72c0-1.95,1.46-3.33,3.47-3.33s3.48,1.38,3.48,3.33-1.45,3.35-3.48,3.35-3.47-1.39-3.47-3.35Zm5.41,0c0-1.24-.83-2.04-1.94-2.04s-1.93.79-1.93,2.04.83,2.04,1.93,2.04,1.94-.79,1.94-2.04Z"/>
          <path class="cls-1" d="m356.64,86.38v1.45c-.13-.02-.25-.04-.35-.04-1.16,0-1.89.68-1.89,2.02v3.16h-1.53v-6.52h1.45v.95c.44-.68,1.23-1.03,2.32-1.03Z"/>
          <path class="cls-1" d="m364.86,89.72c0,2.03-1.41,3.35-3.31,3.35-.83,0-1.56-.28-2.09-.88v3.16h-1.53v-8.89h1.45v.85c.51-.62,1.27-.93,2.16-.93,1.9,0,3.31,1.32,3.31,3.33Zm-1.55,0c0-1.24-.83-2.04-1.93-2.04s-1.94.79-1.94,2.04.84,2.04,1.94,2.04,1.93-.79,1.93-2.04Z"/>
          <path class="cls-1" d="m365.78,89.72c0-1.95,1.46-3.33,3.47-3.33s3.48,1.38,3.48,3.33-1.45,3.35-3.48,3.35-3.47-1.39-3.47-3.35Zm5.41,0c0-1.24-.83-2.04-1.94-2.04s-1.93.79-1.93,2.04.83,2.04,1.93,2.04,1.94-.79,1.94-2.04Z"/>
        </g>
        <path class="cls-2" d="m381.52,90.28h-5.05c-.41,0-.73-.33-.73-.73s.33-.73.73-.73h5.05c.41,0,.73.33.73.73s-.33.73-.73.73Z"/>
        <path class="cls-2" d="m222.74,90.28h-5.05c-.41,0-.73-.33-.73-.73s.33-.73.73-.73h5.05c.41,0,.73.33.73.73s-.33.73-.73.73Z"/>
      </g>
    </g>
  </g>
</svg>