<svg width="187" height="23" viewBox="0 0 187 23" fill="none" xmlns="http://www.w3.org/2000/svg">
<path d="M11.5 0L14.0819 7.9463H22.4371L15.6776 12.8574L18.2595 20.8037L11.5 15.8926L4.74047 20.8037L7.32238 12.8574L0.56285 7.9463H8.91809L11.5 0Z" fill="#C12E2E"/>
<path d="M52.5 0L55.0819 7.9463H63.4371L56.6776 12.8574L59.2595 20.8037L52.5 15.8926L45.7405 20.8037L48.3224 12.8574L41.5628 7.9463H49.9181L52.5 0Z" fill="#C12E2E"/>
<path d="M93.5 0L96.0819 7.9463H104.437L97.6776 12.8574L100.26 20.8037L93.5 15.8926L86.7405 20.8037L89.3224 12.8574L82.5628 7.9463H90.9181L93.5 0Z" fill="#C12E2E"/>
<path d="M134.5 0L137.082 7.9463H145.437L138.678 12.8574L141.26 20.8037L134.5 15.8926L127.74 20.8037L130.322 12.8574L123.563 7.9463H131.918L134.5 0Z" fill="#C12E2E"/>
<path d="M175.5 0L178.082 7.9463H186.437L179.678 12.8574L182.26 20.8037L175.5 15.8926L168.74 20.8037L171.322 12.8574L164.563 7.9463H172.918L175.5 0Z" fill="#C12E2E"/>
</svg>
