<svg width="174" height="166" viewBox="0 0 174 166" fill="none" xmlns="http://www.w3.org/2000/svg">
<path d="M128.819 96.2291C122.988 113.747 112.714 127.788 100.986 136.385C89.2505 144.988 76.3375 147.98 64.8436 144.154C53.3497 140.328 44.8063 130.194 40.5677 116.274C36.332 102.363 36.5234 84.9654 42.3547 67.4474C48.1859 49.9294 58.4597 35.888 70.1875 27.2912C81.9234 18.6884 94.8363 15.6961 106.33 19.5221C117.824 23.3481 126.368 33.4826 130.606 47.4029C134.842 61.3135 134.65 78.7111 128.819 96.2291Z" stroke="#AF384F" stroke-width="7"/>
<circle cx="85.2821" cy="81.5335" r="31.6939" fill="#D16A7D"/>
<circle cx="85.2821" cy="81.5335" r="14.6279" fill="#FFD2D2"/>
<path d="M44.4458 18.7553L58.4642 5.65106L54.5025 16.622L70.6542 3.51782" stroke="#AF384F" stroke-width="4" stroke-linecap="round" stroke-linejoin="round"/>
<path d="M154.335 82.1942L153.135 63.0423L159.083 73.0759L159.24 52.2776" stroke="#AF384F" stroke-width="4" stroke-linecap="round" stroke-linejoin="round"/>
<path d="M16.8752 134.248L10.7362 116.067L19.089 124.208L13.8317 104.085" stroke="#AF384F" stroke-width="4" stroke-linecap="round" stroke-linejoin="round"/>
<path d="M105.563 163.196L117.134 147.888L115.107 159.375L128.78 143.702" stroke="#AF384F" stroke-width="4" stroke-linecap="round" stroke-linejoin="round"/>
<circle cx="79.1871" cy="73.61" r="1.21899" fill="#D16A7D"/>
<circle cx="90.7676" cy="90.0664" r="1.21899" fill="#D16A7D"/>
<circle cx="78.2729" cy="83.6667" r="1.52374" fill="#D16A7D"/>
<circle cx="84.0631" cy="78.486" r="1.82849" fill="#D16A7D"/>
<circle cx="87.7201" cy="83.9714" r="1.21899" fill="#D16A7D"/>
<circle cx="92.2914" cy="76.3527" r="2.13324" fill="#D16A7D"/>
<circle r="0.609497" transform="matrix(1 0 0 -1 95.0341 82.1429)" fill="#D16A7D"/>
<circle r="0.914246" transform="matrix(1 0 0 -1 83.1489 89.1522)" fill="#D16A7D"/>
</svg>
