<svg width="149" height="118" viewBox="0 0 149 118" fill="none" xmlns="http://www.w3.org/2000/svg">
<path fill-rule="evenodd" clip-rule="evenodd" d="M137.865 51C137.865 73.0914 119.956 91 97.8648 91C75.7734 91 57.8648 73.0914 57.8648 51C57.8648 28.9086 75.7734 11 97.8648 11C119.956 11 137.865 28.9086 137.865 51ZM148.865 51C148.865 79.1665 126.031 102 97.8648 102C82.336 102 68.4283 95.0597 59.0741 84.1117L58.5748 84.4385L10.0605 116.193C7.05688 118.159 3.02818 117.318 1.06217 114.314C-0.903833 111.311 -0.0626679 107.282 2.94097 105.316L51.4553 73.5614L51.954 73.235C48.6934 66.5148 46.8648 58.971 46.8648 51C46.8648 22.8335 69.6982 0 97.8648 0C126.031 0 148.865 22.8335 148.865 51Z" fill="#AF384F"/>
<path fill-rule="evenodd" clip-rule="evenodd" d="M79.5007 50.507L79.538 50.4697C88.8958 49.8812 96.382 42.395 96.9704 33.0373L97.0077 33L97.045 33.0373C97.6335 42.395 105.12 49.8812 114.477 50.4697L114.515 50.507L114.477 50.5442C105.12 51.1326 97.6334 58.6189 97.045 67.9767L97.0077 68.0139L96.9704 67.9767C96.382 58.6189 88.8958 51.1327 79.538 50.5442L79.5007 50.507Z" fill="#AF384F"/>
</svg>
