<svg width="186" height="104" viewBox="0 0 186 104" fill="none" xmlns="http://www.w3.org/2000/svg">
<path d="M0 10.032C0 4.78168 4.71613 0.78903 9.89446 1.65539V1.65539C64.9158 10.8607 121.084 10.8607 176.106 1.65539V1.65539C181.284 0.78903 186 4.78168 186 10.032V68H0V10.032Z" fill="#D16A7D"/>
<path d="M152.983 30.2952L184.866 21.6536V79.1992H0.5V21.6536L32.3828 30.2952C71.8705 40.9982 113.495 40.9982 152.983 30.2952Z" fill="#FFD2D2" stroke="#D16A7D"/>
<path d="M0.195068 45.3008L38.4216 58.9446C73.6379 71.5141 112.118 71.5141 147.334 58.9446L185.561 45.3008V86C185.561 95.9411 177.502 104 167.561 104H18.1951C8.25396 104 0.195068 95.9411 0.195068 86V45.3008Z" fill="#AF384F"/>
<circle cx="8" cy="37" r="2" fill="#D16A7D"/>
<circle cx="31" cy="40" r="3" fill="#D16A7D"/>
<circle cx="48" cy="52" r="3" fill="#D16A7D"/>
<circle cx="70" cy="48" r="4" fill="#D16A7D"/>
<circle cx="97.5" cy="57.5" r="4.5" fill="#D16A7D"/>
<circle cx="124.5" cy="46.5" r="2.5" fill="#D16A7D"/>
<circle cx="150.5" cy="48.5" r="3.5" fill="#D16A7D"/>
<circle cx="173.5" cy="35.5" r="2.5" fill="#D16A7D"/>
</svg>
