<?xml version="1.0" encoding="utf-8"?>
<!-- Generator: Adobe Illustrator 24.1.1, SVG Export Plug-In . SVG Version: 6.00 Build 0)  -->
<svg version="1.1" id="Capa_1" xmlns="http://www.w3.org/2000/svg" xmlns:xlink="http://www.w3.org/1999/xlink" x="0px" y="0px"
	 viewBox="0 0 510 510" style="enable-background:new 0 0 510 510;" xml:space="preserve">
<style type="text/css">
	.st0{fill:#AF384F;}
</style>
<g>
	<g id="account-circle">
		<path class="st0" d="M255,0C114.8,0,0,114.8,0,255s114.8,255,255,255s255-114.8,255-255S395.3,0,255,0z M255,76.5
			c43.4,0,76.5,33.2,76.5,76.5s-33.1,76.5-76.5,76.5s-76.5-33.1-76.5-76.5S211.6,76.5,255,76.5z M255,438.6
			c-63.8,0-119.9-33.1-153-81.6c0-51,102-79,153-79s153,28,153,79C374.9,405.5,318.8,438.6,255,438.6z"/>
	</g>
</g>
</svg>
