<svg width="950" height="450" viewBox="0 0 950 450" fill="none" xmlns="http://www.w3.org/2000/svg">
<rect width="950" height="450" fill="white"/>
<path d="M161.975 192.025C161.87 192.162 161.778 192.308 161.702 192.462C161.335 193.369 161.209 194.352 161.335 195.319C161.428 196.012 161.565 196.698 161.744 197.375C162.08 198.685 162.431 199.99 162.741 201.3C163.029 202.587 163.239 203.889 163.37 205.201C163.555 207.098 163.62 209.004 163.564 210.91C163.493 212.879 163.161 214.83 162.578 216.716C161.619 219.985 160.163 223.094 158.26 225.94C158.087 226.202 157.909 226.454 157.735 226.721C157.67 226.804 157.639 226.908 157.647 227.012C157.656 227.117 157.704 227.215 157.783 227.286C158.024 227.579 158.307 227.867 158.522 228.165C159.188 228.977 159.75 229.866 160.196 230.811C160.597 231.662 160.84 232.575 160.915 233.509C160.981 234.484 160.801 235.46 160.39 236.351C160.038 237.185 159.533 237.95 158.9 238.606C158.433 239.079 157.945 239.526 157.431 239.953C156.781 240.491 156.078 240.965 155.332 241.366C153.142 242.626 151.184 244.238 149.54 246.134C148.481 247.305 147.524 248.562 146.681 249.891C146.529 250.122 146.382 250.358 146.219 250.584C146.193 250.62 146.114 250.62 146.062 250.636C146.009 250.651 146.025 250.569 146.035 250.538C146.466 248.747 147.196 247.039 148.197 245.482C148.535 244.997 148.899 244.531 149.288 244.084C150.269 242.897 151.266 241.725 152.242 240.533C152.878 239.742 153.379 238.855 153.727 237.908C154.042 237.088 154.173 236.212 154.11 235.338C154.052 234.359 153.63 233.434 152.924 232.738C152.541 232.353 152.347 232.322 151.917 232.62C150.108 233.843 148.514 235.344 147.195 237.065C146.388 238.119 145.72 239.269 145.206 240.487C144.709 241.672 144.357 242.91 144.157 244.177C144.078 244.69 144.068 245.204 144.036 245.718C143.848 249.038 143.848 252.362 143.8 255.687V256.519C143.757 256.528 143.712 256.528 143.669 256.519C143.598 256.401 143.542 256.275 143.501 256.144C143.113 254.171 142.609 252.218 142.069 250.286C141.586 248.511 141.256 246.699 141.083 244.87C140.929 243.248 140.88 241.617 140.936 239.989C140.968 237.845 141.235 235.71 141.733 233.622C142.226 231.626 143.037 229.718 144.136 227.97C144.33 227.671 144.509 227.379 144.687 227.081C144.71 227.045 144.724 227.005 144.731 226.963C144.737 226.921 144.735 226.879 144.724 226.838C144.713 226.797 144.694 226.759 144.668 226.726C144.642 226.692 144.609 226.664 144.572 226.644C144.356 226.526 144.136 226.418 143.921 226.294C142.45 225.49 141.174 224.383 140.18 223.05C139.187 221.717 138.499 220.189 138.165 218.571C137.933 217.382 137.946 216.159 138.202 214.974C138.556 213.203 139.122 211.478 139.886 209.836C140.18 209.168 140.49 208.505 140.768 207.832C141.178 206.873 141.513 205.885 141.77 204.877C142.1 203.528 142.119 202.124 141.828 200.766C141.749 200.391 141.66 200.021 141.581 199.646C141.581 199.564 141.581 199.512 141.67 199.517C141.687 199.517 141.704 199.52 141.72 199.528C141.735 199.535 141.749 199.545 141.759 199.558C141.865 199.698 141.961 199.844 142.048 199.995C143.023 201.759 143.692 203.669 144.026 205.648C144.23 207.019 144.295 208.406 144.22 209.789C144.22 210.241 144.183 210.694 144.173 211.141C144.152 212.637 144.467 214.119 145.096 215.483C146.037 217.548 147.478 219.358 149.294 220.755C149.378 220.818 149.465 220.876 149.556 220.93C149.615 220.967 149.685 220.987 149.755 220.987C149.826 220.987 149.895 220.967 149.955 220.93C150.437 220.472 150.946 220.036 151.392 219.547C153.187 217.537 154.735 215.328 156.004 212.965C157.408 210.437 158.482 207.745 159.199 204.954C159.71 202.97 159.958 200.931 159.939 198.885C159.939 198.087 159.955 197.291 159.986 196.496C160.031 195.622 160.194 194.759 160.469 193.927C160.648 193.255 160.994 192.637 161.476 192.128C161.536 192.064 161.616 192.021 161.703 192.006C161.791 191.991 161.881 192.005 161.959 192.046L161.975 192.025Z" fill="#AF384F"/>
<path d="M810.975 192.025C810.87 192.162 810.778 192.308 810.702 192.462C810.335 193.369 810.209 194.352 810.335 195.319C810.428 196.012 810.565 196.698 810.744 197.375C811.08 198.685 811.431 199.99 811.741 201.3C812.029 202.587 812.239 203.889 812.37 205.201C812.556 207.098 812.62 209.004 812.564 210.91C812.493 212.879 812.161 214.83 811.578 216.716C810.619 219.985 809.163 223.094 807.26 225.94C807.087 226.202 806.909 226.454 806.735 226.721C806.67 226.804 806.639 226.908 806.647 227.012C806.656 227.117 806.704 227.215 806.783 227.286C807.024 227.579 807.307 227.867 807.522 228.165C808.188 228.977 808.75 229.866 809.196 230.811C809.597 231.662 809.84 232.575 809.915 233.509C809.981 234.484 809.801 235.46 809.39 236.351C809.038 237.185 808.533 237.95 807.9 238.606C807.433 239.079 806.945 239.526 806.431 239.953C805.782 240.491 805.078 240.965 804.332 241.366C802.142 242.626 800.184 244.238 798.54 246.134C797.481 247.305 796.524 248.562 795.681 249.891C795.529 250.122 795.382 250.358 795.219 250.584C795.193 250.62 795.114 250.62 795.062 250.636C795.009 250.651 795.025 250.569 795.035 250.538C795.466 248.747 796.196 247.039 797.197 245.482C797.535 244.997 797.899 244.531 798.288 244.084C799.269 242.897 800.266 241.725 801.242 240.533C801.878 239.742 802.379 238.855 802.727 237.908C803.042 237.088 803.173 236.212 803.11 235.338C803.052 234.359 802.63 233.434 801.924 232.738C801.541 232.353 801.347 232.322 800.917 232.62C799.109 233.843 797.514 235.344 796.195 237.065C795.388 238.119 794.72 239.269 794.206 240.487C793.709 241.672 793.357 242.91 793.157 244.177C793.078 244.69 793.068 245.204 793.036 245.718C792.848 249.038 792.848 252.362 792.8 255.687V256.519C792.757 256.528 792.712 256.528 792.669 256.519C792.598 256.401 792.542 256.275 792.501 256.144C792.113 254.171 791.609 252.218 791.069 250.286C790.586 248.511 790.256 246.699 790.083 244.87C789.929 243.248 789.88 241.617 789.936 239.989C789.968 237.845 790.235 235.71 790.733 233.622C791.226 231.626 792.037 229.718 793.136 227.97C793.33 227.671 793.509 227.379 793.687 227.081C793.71 227.045 793.724 227.005 793.731 226.963C793.737 226.921 793.735 226.879 793.724 226.838C793.713 226.797 793.694 226.759 793.668 226.726C793.642 226.692 793.609 226.664 793.572 226.644C793.357 226.526 793.136 226.418 792.921 226.294C791.45 225.49 790.174 224.383 789.18 223.05C788.187 221.717 787.499 220.189 787.165 218.571C786.933 217.382 786.946 216.159 787.202 214.974C787.556 213.203 788.122 211.478 788.886 209.836C789.18 209.168 789.49 208.505 789.768 207.832C790.178 206.873 790.513 205.885 790.77 204.877C791.1 203.528 791.119 202.124 790.828 200.766C790.749 200.391 790.66 200.021 790.581 199.646C790.581 199.564 790.581 199.512 790.67 199.517C790.687 199.517 790.704 199.52 790.72 199.528C790.735 199.535 790.749 199.545 790.759 199.558C790.865 199.698 790.961 199.844 791.048 199.995C792.023 201.759 792.692 203.669 793.026 205.648C793.23 207.019 793.295 208.406 793.22 209.789C793.22 210.241 793.183 210.694 793.173 211.141C793.152 212.637 793.467 214.119 794.096 215.483C795.037 217.548 796.478 219.358 798.294 220.755C798.378 220.818 798.465 220.876 798.556 220.93C798.615 220.967 798.685 220.987 798.755 220.987C798.826 220.987 798.895 220.967 798.955 220.93C799.437 220.472 799.946 220.036 800.392 219.547C802.187 217.537 803.735 215.328 805.004 212.965C806.408 210.437 807.482 207.745 808.199 204.954C808.71 202.97 808.958 200.931 808.939 198.885C808.939 198.087 808.955 197.291 808.986 196.496C809.031 195.622 809.194 194.759 809.469 193.927C809.649 193.255 809.995 192.637 810.476 192.128C810.536 192.064 810.616 192.021 810.703 192.006C810.791 191.991 810.881 192.005 810.959 192.046L810.975 192.025Z" fill="#AF384F"/>
</svg>
