<svg xmlns="http://www.w3.org/2000/svg" viewBox="0 0 407.87 360.03"><g id="Livello_2" data-name="Livello 2"><g id="Livello_1-2" data-name="Livello 1"><circle cx="202.55" cy="179.97" r="30.52" style="fill:#b13850"/><circle cx="249.71" cy="179.97" r="16.65" style="fill:#d16a7d"/><circle cx="321.85" cy="179.97" r="16.65" style="fill:#d16a7d"/><circle cx="391.22" cy="179.97" r="16.65" style="fill:#d16a7d"/><circle cx="374.57" cy="213.27" r="16.65" style="fill:#d16a7d"/><circle cx="374.57" cy="146.68" r="16.65" style="fill:#d16a7d"/><circle cx="285.78" cy="179.97" r="22.2" style="fill:#b13850"/><circle cx="355.15" cy="179.97" r="22.2" style="fill:#b13850"/><circle cx="158.15" cy="179.97" r="16.65" style="fill:#d16a7d"/><circle cx="86.01" cy="179.97" r="16.65" style="fill:#d16a7d"/><circle cx="16.65" cy="179.97" r="16.65" style="fill:#d16a7d"/><circle cx="33.3" cy="146.68" r="16.65" style="fill:#d16a7d"/><circle cx="33.3" cy="213.27" r="16.65" style="fill:#d16a7d"/><circle cx="122.08" cy="179.97" r="22.2" style="fill:#b13850"/><circle cx="52.72" cy="179.97" r="22.2" style="fill:#b13850"/><circle cx="225.63" cy="217.7" r="16.65" style="fill:#d16a7d"/><circle cx="260.09" cy="281.08" r="16.65" style="fill:#d16a7d"/><circle cx="293.22" cy="342.02" r="16.65" style="fill:#d16a7d"/><circle cx="256.01" cy="343.3" r="16.65" style="fill:#d16a7d"/><circle cx="314.52" cy="311.49" r="16.65" style="fill:#d16a7d"/><circle cx="242.86" cy="249.39" r="22.2" style="fill:#b13850"/><circle cx="275.99" cy="310.33" r="22.2" style="fill:#b13850"/><circle cx="179.46" cy="142.25" r="16.65" style="fill:#d16a7d"/><circle cx="145" cy="78.87" r="16.65" style="fill:#d16a7d"/><circle cx="111.87" cy="17.93" r="16.65" style="fill:#d16a7d"/><circle cx="149.08" cy="16.65" r="16.65" style="fill:#d16a7d"/><circle cx="90.57" cy="48.46" r="16.65" style="fill:#d16a7d"/><circle cx="162.23" cy="110.56" r="22.2" style="fill:#b13850"/><circle cx="129.1" cy="49.62" r="22.2" style="fill:#b13850"/><circle cx="180.94" cy="220.21" r="16.65" style="fill:#d16a7d"/><circle cx="142.15" cy="281.03" r="16.65" style="fill:#d16a7d"/><circle cx="104.85" cy="339.51" r="16.65" style="fill:#d16a7d"/><circle cx="85.73" cy="307.57" r="16.65" style="fill:#d16a7d"/><circle cx="141.87" cy="343.38" r="16.65" style="fill:#d16a7d"/><circle cx="161.54" cy="250.62" r="22.2" style="fill:#b13850"/><circle cx="124.24" cy="309.1" r="22.2" style="fill:#b13850"/><circle cx="226.05" cy="142.48" r="16.65" style="fill:#d16a7d"/><circle cx="260.08" cy="78.86" r="16.65" style="fill:#d16a7d"/><circle cx="292.8" cy="17.7" r="16.65" style="fill:#d16a7d"/><circle cx="314.3" cy="48.08" r="16.65" style="fill:#d16a7d"/><circle cx="255.59" cy="16.68" r="16.65" style="fill:#d16a7d"/><circle cx="243.07" cy="110.67" r="22.2" style="fill:#b13850"/><circle cx="275.78" cy="49.51" r="22.2" style="fill:#b13850"/></g></g></svg>