<svg width="164" height="155" viewBox="0 0 164 155" fill="none" xmlns="http://www.w3.org/2000/svg">
<path d="M0.829834 74.7523C1.19879 132.678 48.1791 149.619 70.9313 150.849C72.7761 144.208 73.8389 136.552 73.6985 133.324C71.8537 90.8941 25.2731 79.8254 0.829834 74.7523Z" fill="#AF384F"/>
<path d="M43.2598 86.7433C41.415 78.903 49.6242 62.669 56.6344 54.9209C63.3986 46.6194 77.6648 27.526 80.6165 17.5642C83.5681 7.60239 80.6165 2.03731 78.7717 0.5C98.9105 14.9507 136.144 54.7364 123.969 98.2731L121.858 99.7592C142.108 99.6497 151.342 92.4457 153.485 88.5881C153.485 105.191 137.343 148.082 108.749 146.699C85.8741 145.592 79.2329 151.157 78.7717 154.078L76.0045 149.466C74.5216 143.534 75.1844 136.124 77.7477 128.845L43.2598 86.7433Z" fill="#AF384F"/>
<path d="M71.8537 155C73.6985 130.557 57.0955 109.342 28.9626 89.0493C41.2612 95.3522 67.2417 112.847 72.7761 132.401C71.7 120.103 63.5522 98.301 37.2641 85.3597L40.9537 84.8985C48.0253 87.5119 63.1832 94.2146 69.0865 105.652C68.0104 97.5045 68.6253 80.718 74.6209 67.3731C78.9527 57.7313 86.9935 38.4107 87.5902 31.648C87.6233 30.935 87.6016 30.3917 87.5343 30.0164C87.635 30.4194 87.6499 30.9708 87.5902 31.648C87.3789 36.1926 84.938 47.6347 77.8492 66.4507C67.5979 93.6612 73.2373 115.337 75.5432 122.255C77.6955 114.415 87.5343 97.8119 120.74 96.4284C150.995 93.8457 159.173 75.9821 159.481 67.3731L163.17 72.9075C161.787 80.2866 154.205 94.3031 135.96 97.8119C111.978 102.424 78.3104 97.8119 75.5432 146.699C79.3865 134.861 94.1755 110.449 122.585 107.497C99.9865 115.431 78.611 133.785 80.6164 155H71.8537Z" fill="#FFD2D2"/>
</svg>
