<svg width="186" height="183" viewBox="0 0 186 183" fill="none" xmlns="http://www.w3.org/2000/svg">
<path d="M139.656 106.631C133.178 126.091 121.761 141.705 108.707 151.274C95.6444 160.849 81.2225 164.213 68.3512 159.929C55.4799 155.644 45.9516 144.308 41.234 128.814C36.5194 113.331 36.7377 93.989 43.2154 74.529C49.6931 55.0691 61.1104 39.4554 74.1644 29.8863C87.2266 20.3114 101.648 16.947 114.52 21.2315C127.391 25.516 136.919 36.8527 141.637 52.3461C146.352 67.8298 146.133 87.1714 139.656 106.631Z" stroke="#AF384F" stroke-width="7"/>
<circle cx="91.0981" cy="90.2428" r="35.0896" fill="#D16A7D"/>
<circle cx="91.0981" cy="90.2428" r="16.1952" fill="#FFD2D2"/>
<path d="M45.8865 20.7383L61.4069 6.23007L57.0207 18.3765L74.9029 3.86827" stroke="#AF384F" stroke-width="4" stroke-linecap="round" stroke-linejoin="round"/>
<path d="M167.55 90.9743L166.221 69.7704L172.807 80.8791L172.98 57.8523" stroke="#AF384F" stroke-width="4" stroke-linecap="round" stroke-linejoin="round"/>
<path d="M15.3618 148.605L8.5651 128.476L17.8128 137.49L11.9922 115.21" stroke="#AF384F" stroke-width="4" stroke-linecap="round" stroke-linejoin="round"/>
<path d="M113.552 180.655L126.363 163.707L124.118 176.425L139.256 159.072" stroke="#AF384F" stroke-width="4" stroke-linecap="round" stroke-linejoin="round"/>
<circle cx="84.3501" cy="81.4703" r="1.3496" fill="#D16A7D"/>
<circle cx="97.1713" cy="99.69" r="1.3496" fill="#D16A7D"/>
<circle cx="83.3379" cy="92.6046" r="1.687" fill="#D16A7D"/>
<circle cx="89.7485" cy="86.8688" r="2.0244" fill="#D16A7D"/>
<circle cx="93.7972" cy="92.942" r="1.3496" fill="#D16A7D"/>
<circle cx="98.8584" cy="84.507" r="2.3618" fill="#D16A7D"/>
<circle r="0.674801" transform="matrix(1 0 0 -1 101.895 90.9176)" fill="#D16A7D"/>
<circle r="1.0122" transform="matrix(1 0 0 -1 88.7363 98.6778)" fill="#D16A7D"/>
</svg>
