<svg xmlns="http://www.w3.org/2000/svg" viewBox="0 0 256 242"><defs><style>.cls-1{fill:#fff;}.cls-2{fill:#af384f;}</style></defs><g id="Livello_2" data-name="Livello 2"><g id="Livello_1-2" data-name="Livello 1"><rect class="cls-1" width="256" height="242" rx="121"/><path class="cls-2" d="M159.21,29.17a7.73,7.73,0,0,0-.76,1.25,16.46,16.46,0,0,0-1,8.13,54.52,54.52,0,0,0,1.14,5.8c.95,3.72,1.92,7.45,2.79,11.19a94,94,0,0,1,1.74,11.09,127.93,127.93,0,0,1,.51,16.26,64.84,64.84,0,0,1-2.75,16.58,96.33,96.33,0,0,1-12,26.26c-.48.74-1,1.48-1.45,2.23a1.17,1.17,0,0,0,.13,1.61c.68.84,1.39,1.67,2.07,2.51a36.55,36.55,0,0,1,4.67,7.53,22.79,22.79,0,0,1,2,7.68,17.32,17.32,0,0,1-1.41,8.09,20.83,20.83,0,0,1-4.17,6.42,51.28,51.28,0,0,1-4.09,3.84,36,36,0,0,1-5.84,4,62.93,62.93,0,0,0-16.29,13.58,80.18,80.18,0,0,0-7.93,10.67c-.42.67-.84,1.33-1.29,2-.07.1-.29.1-.44.14s-.1-.19-.08-.27a47.86,47.86,0,0,1,6-14.39,46.77,46.77,0,0,1,3-4c2.73-3.37,5.51-6.71,8.23-10.09a26.28,26.28,0,0,0,4.14-7.47,17.29,17.29,0,0,0,1.08-7.26,11.47,11.47,0,0,0-3.31-7.4c-1.06-1.09-1.61-1.17-2.81-.33a56.74,56.74,0,0,0-13.2,12.63,44.94,44.94,0,0,0-5.54,9.75,45.74,45.74,0,0,0-3,10.5,43.6,43.6,0,0,0-.34,4.42c-.55,9.46-.55,18.93-.66,28.4,0,.78,0,1.57,0,2.37-.19,0-.35,0-.37,0a5,5,0,0,1-.46-1.07c-1.09-5.62-2.48-11.16-4-16.68a93.39,93.39,0,0,1-2.77-15.41,112.87,112.87,0,0,1-.42-13.88,85.44,85.44,0,0,1,2.38-18.15,55.68,55.68,0,0,1,6.7-16c.51-.84,1-1.68,1.54-2.53a.9.9,0,0,0-.37-1.26c-.6-.35-1.22-.66-1.81-1a32.57,32.57,0,0,1-16-22.07,26,26,0,0,1,.1-10.29,65.68,65.68,0,0,1,4.68-14.61c.83-1.9,1.69-3.79,2.47-5.7a57.68,57.68,0,0,0,2.79-8.42A26.84,26.84,0,0,0,103,54c-.22-1.06-.47-2.11-.69-3.18,0-.23.06-.38.25-.37a.36.36,0,0,1,.25.13,12.42,12.42,0,0,1,.81,1.23A51.84,51.84,0,0,1,109.17,68a60.51,60.51,0,0,1,.55,11.8c0,1.28-.09,2.56-.12,3.84A29.07,29.07,0,0,0,112.17,96a39.47,39.47,0,0,0,11.72,15c.23.18.49.33.73.49a1,1,0,0,0,1.11,0c1.35-1.3,2.76-2.54,4-3.94a97.35,97.35,0,0,0,12.88-18.73A97.38,97.38,0,0,0,151.5,66a67.52,67.52,0,0,0,2-17.28c0-2.27,0-4.54.14-6.8A28.37,28.37,0,0,1,155,34.62a12.2,12.2,0,0,1,2.8-5.15,1.13,1.13,0,0,1,1.35-.24Z"/></g></g></svg>